<svg version="1.2" baseProfile="tiny-ps" xmlns="http://www.w3.org/2000/svg" viewBox="0 0 500 373" width="500" height="373">
	<title>barber-svg</title>
	<style>
		tspan { white-space:pre }
		.shp0 { fill: #ebebeb } 
		.shp1 { fill: #e0e0e0 } 
		.shp2 { fill: #ffffff } 
		.shp3 { fill: #f0f0f0 } 
		.shp4 { fill: #f5f5f5 } 
		.shp5 { fill: #e6e6e6 } 
		.shp6 { fill: #407bff } 
		.shp7 { opacity: 0.2;fill: #000000 } 
		.shp8 { opacity: 0.8;fill: #ffffff } 
		.shp9 { opacity: 0.2;fill: #407bff } 
		.shp10 { fill: #263238 } 
		.shp11 { opacity: 0.4;fill: #ffffff } 
		.shp12 { fill: #ff8b7b } 
		.shp13 { fill: #ff5652 } 
		.shp14 { opacity: 0.2;fill: #ffffff } 
		.shp15 { fill: #000000 } 
		.shp16 { opacity: 0.302;fill: #407bff } 
		.shp17 { opacity: 0.302;fill: #000000 } 
		.shp18 { opacity: 0.502;fill: #000000 } 
		.shp19 { opacity: 0.6;fill: #ffffff } 
		.shp20 { fill: #ffc3bd } 
		.shp21 { fill: #ed847e } 
	</style>
	<g id="freepik--background-complete--inject-11">
		<path id="Layer" class="shp0" d="M0 327.4L500 327.4L500 327.65L0 327.65L0 327.4Z" />
		<path id="Layer" class="shp0" d="M52.46 336.92L85.58 336.92L85.58 337.17L52.46 337.17L52.46 336.92Z" />
		<path id="Layer" class="shp0" d="M136.33 334.21L179.83 334.21L179.83 334.46L136.33 334.46L136.33 334.21Z" />
		<path id="Layer" class="shp0" d="M81.58 342.08L120.33 342.08L120.33 342.33L81.58 342.33L81.58 342.08Z" />
		<path id="Layer" class="shp0" d="M406.71 344.53L449.9 344.53L449.9 344.78L406.71 344.78L406.71 344.53Z" />
		<path id="Layer" class="shp0" d="M379 344.53L397.8 344.53L397.8 344.78L379 344.78L379 344.53Z" />
		<path id="Layer" class="shp0" d="M238.44 340.31L275 340.31L275 340.56L238.44 340.56L238.44 340.31Z" />
		<path id="Layer" fill-rule="evenodd" class="shp0" d="M43.91 282.8C43.16 282.8 42.42 282.65 41.73 282.36C41.04 282.07 40.41 281.65 39.88 281.12C39.35 280.59 38.93 279.96 38.64 279.27C38.36 278.58 38.21 277.84 38.21 277.09L38.21 5.66C38.22 4.92 38.37 4.18 38.66 3.49C38.95 2.81 39.37 2.18 39.9 1.66C40.42 1.13 41.05 0.72 41.74 0.43C42.43 0.15 43.17 0 43.91 0L237 0C237.75 0 238.49 0.15 239.19 0.43C239.88 0.72 240.51 1.14 241.04 1.67C241.57 2.2 241.99 2.83 242.28 3.52C242.56 4.22 242.71 4.96 242.71 5.71L242.71 277.09C242.71 277.84 242.56 278.58 242.28 279.28C241.99 279.97 241.57 280.6 241.04 281.13C240.51 281.66 239.88 282.08 239.19 282.37C238.49 282.65 237.75 282.8 237 282.8L43.91 282.8ZM43.91 0.2C43.19 0.2 42.48 0.34 41.82 0.62C41.16 0.89 40.56 1.3 40.06 1.8C39.55 2.31 39.15 2.91 38.87 3.57C38.6 4.23 38.46 4.94 38.46 5.66L38.46 277.09C38.46 277.81 38.6 278.52 38.87 279.18C39.15 279.84 39.55 280.44 40.06 280.95C40.56 281.45 41.16 281.86 41.82 282.13C42.48 282.41 43.19 282.55 43.91 282.55L237 282.55C237.72 282.55 238.43 282.41 239.09 282.13C239.75 281.86 240.35 281.45 240.86 280.95C241.36 280.44 241.77 279.84 242.04 279.18C242.32 278.52 242.46 277.81 242.46 277.09L242.46 5.66C242.46 4.94 242.32 4.23 242.04 3.57C241.77 2.91 241.36 2.31 240.86 1.8C240.35 1.3 239.75 0.89 239.09 0.62C238.43 0.34 237.72 0.2 237 0.2L43.91 0.2Z" />
		<path id="Layer" fill-rule="evenodd" class="shp0" d="M260.21 282.8C259.46 282.8 258.72 282.65 258.03 282.36C257.33 282.08 256.71 281.65 256.18 281.12C255.65 280.59 255.22 279.97 254.94 279.27C254.65 278.58 254.5 277.84 254.5 277.09L254.5 5.66C254.51 4.91 254.66 4.18 254.95 3.49C255.24 2.81 255.66 2.18 256.19 1.66C256.72 1.13 257.35 0.72 258.04 0.43C258.73 0.15 259.46 0 260.21 0L453.31 0C454.05 0 454.79 0.15 455.48 0.44C456.16 0.72 456.79 1.14 457.32 1.66C457.84 2.19 458.26 2.81 458.55 3.49C458.84 4.18 458.99 4.92 459 5.66L459 277.09C459 277.84 458.85 278.58 458.57 279.27C458.28 279.96 457.86 280.59 457.33 281.12C456.81 281.65 456.18 282.07 455.49 282.36C454.8 282.65 454.06 282.8 453.31 282.8L260.21 282.8ZM260.21 0.2C259.49 0.2 258.78 0.34 258.12 0.62C257.46 0.89 256.86 1.3 256.35 1.8C255.85 2.31 255.44 2.91 255.17 3.57C254.89 4.23 254.75 4.94 254.75 5.66L254.75 277.09C254.75 277.81 254.89 278.52 255.17 279.18C255.44 279.84 255.85 280.44 256.35 280.95C256.86 281.45 257.46 281.86 258.12 282.13C258.78 282.41 259.49 282.55 260.21 282.55L453.31 282.55C454.03 282.55 454.74 282.41 455.4 282.13C456.06 281.86 456.66 281.45 457.17 280.95C457.67 280.44 458.08 279.84 458.35 279.18C458.63 278.52 458.77 277.81 458.77 277.09L458.77 5.66C458.77 4.94 458.63 4.23 458.35 3.57C458.08 2.91 457.67 2.31 457.17 1.8C456.66 1.3 456.06 0.89 455.4 0.62C454.74 0.34 454.03 0.2 453.31 0.2L260.21 0.2Z" />
		<path id="Layer" class="shp0" d="M286.07 21.99L350.98 21.99L350.98 104.23L286.07 104.23L286.07 21.99Z" />
		<path id="Layer" class="shp1" d="M286.07 104.22L283.71 104.22L283.71 21.98L286.07 21.98L286.07 104.22Z" />
		<path id="Layer" class="shp2" d="M343.54 29.42L343.54 96.78L293.5 96.78L293.5 29.42L343.54 29.42Z" />
		<path id="Layer" class="shp3" d="M325.71 57.46C321.74 61.43 315.32 61.43 311.35 57.46C307.38 53.49 307.38 47.07 311.35 43.1C315.32 39.13 321.74 39.13 325.71 43.1C329.68 47.07 329.68 53.49 325.71 57.46Z" />
		<path id="Layer" class="shp3" d="M303.22 70.7L333.84 70.7L333.84 75.35L303.22 75.35L303.22 70.7Z" />
		<path id="Layer" class="shp3" d="M303.22 78.49L333.84 78.49L333.84 83.14L303.22 83.14L303.22 78.49Z" />
		<path id="Layer" class="shp0" d="M371.82 70.54L436.73 70.54L436.73 152.78L371.82 152.78L371.82 70.54Z" />
		<path id="Layer" class="shp1" d="M371.83 152.79L369.47 152.79L369.47 70.55L371.83 70.55L371.83 152.79Z" />
		<path id="Layer" class="shp2" d="M429.3 77.99L429.3 145.35L379.26 145.35L379.26 77.99L429.3 77.99Z" />
		<path id="Layer" fill-rule="evenodd" class="shp3" d="M392.48 127.15C390.5 122.39 391.58 116.9 395.22 113.25C398.86 109.6 404.35 108.5 409.12 110.46C413.88 112.43 417 117.08 417 122.24C417 123.91 416.67 125.57 416.03 127.11C415.39 128.66 414.46 130.06 413.28 131.25C412.1 132.43 410.69 133.37 409.15 134.02C407.61 134.66 405.95 134.99 404.28 135C399.12 135.01 394.46 131.91 392.48 127.15ZM404.28 110.6C399.57 110.6 395.32 113.44 393.52 117.79C391.71 122.15 392.71 127.16 396.04 130.49C399.37 133.82 404.38 134.82 408.74 133.01C413.09 131.21 415.93 126.96 415.93 122.25C415.93 120.72 415.63 119.2 415.04 117.79C414.46 116.38 413.6 115.09 412.52 114.01C411.44 112.93 410.15 112.07 408.74 111.48C407.33 110.89 405.81 110.59 404.28 110.59L404.28 110.6Z" />
		<path id="Layer" class="shp3" d="M419.58 101.97L388.96 101.97L388.96 98.94L419.58 98.94L419.58 101.97Z" />
		<path id="Layer" class="shp3" d="M419.58 96.89L388.96 96.89L388.96 93.86L419.58 93.86L419.58 96.89Z" />
		<path id="Layer" class="shp3" d="M414.42 91.8L394.13 91.8L394.13 88.77L414.42 88.77L414.42 91.8Z" />
		<path id="Layer" class="shp4" d="M64.33 211.41L440.33 211.41L440.33 216.85L64.33 216.85L64.33 211.41Z" />
		<path id="Layer" class="shp5" d="M64.33 211.41L84.33 211.41L84.33 216.85L64.33 216.85L64.33 211.41Z" />
		<path id="Layer" class="shp4" d="M97.66 190.66L104.91 190.66C105.34 190.66 105.76 190.74 106.15 190.91C106.54 191.07 106.9 191.31 107.2 191.61C107.5 191.91 107.74 192.27 107.9 192.66C108.07 193.05 108.15 193.47 108.15 193.9L108.15 211.41L94.42 211.41L94.42 193.9C94.42 193.47 94.5 193.05 94.67 192.66C94.83 192.27 95.07 191.91 95.37 191.61C95.67 191.31 96.03 191.07 96.42 190.91C96.81 190.74 97.23 190.66 97.66 190.66Z" />
		<path id="Layer" class="shp5" d="M97.24 187.98C97.24 187.68 97.48 187.44 97.78 187.44L104.8 187.44C105.1 187.44 105.34 187.68 105.34 187.98L105.34 190.13C105.34 190.43 105.1 190.67 104.8 190.67L97.78 190.67C97.48 190.67 97.24 190.43 97.24 190.13L97.24 187.98Z" />
		<path id="Layer" class="shp5" d="M79.24 184.81L86.49 184.81C86.91 184.81 87.33 184.89 87.72 185.05C88.1 185.21 88.46 185.45 88.76 185.74C89.06 186.04 89.3 186.39 89.46 186.78C89.63 187.16 89.71 187.58 89.72 188L89.72 211.37L76 211.37L76 188C76.01 187.58 76.1 187.16 76.26 186.78C76.43 186.39 76.67 186.04 76.97 185.74C77.27 185.45 77.62 185.21 78.01 185.05C78.4 184.89 78.82 184.81 79.24 184.81L79.24 184.81Z" />
		<path id="Layer" class="shp5" d="M81.72 179.22L84 179.22C84.13 179.22 84.26 179.25 84.38 179.3C84.5 179.35 84.61 179.42 84.71 179.51C84.8 179.61 84.87 179.72 84.92 179.84C84.97 179.96 85 180.09 85 180.22L85 187.6L80.7 187.6L80.7 180.22C80.7 180.09 80.73 179.96 80.78 179.83C80.83 179.71 80.9 179.6 81 179.51C81.09 179.41 81.21 179.34 81.33 179.29C81.45 179.24 81.59 179.22 81.72 179.22L81.72 179.22Z" />
		<path id="Layer" class="shp4" d="M401.91 211.41L390.63 211.41L390.63 186.97C390.63 186.52 390.72 186.08 390.89 185.67C391.06 185.26 391.31 184.88 391.63 184.57C391.94 184.25 392.32 184 392.73 183.83C393.14 183.66 393.58 183.57 394.03 183.57L398.55 183.57C399 183.57 399.44 183.66 399.85 183.83C400.26 184 400.64 184.25 400.95 184.57C401.27 184.88 401.52 185.26 401.69 185.67C401.86 186.08 401.95 186.52 401.95 186.97L401.95 211.41C792.55 449.97 792.55 449.97 792.55 449.97L792.55 449.97L792.55 449.97L792.55 449.97L401.91 211.41Z" />
		<path id="Layer" class="shp5" d="M399.6 182.99C399.6 183.3 399.34 183.56 399.03 183.56L393.52 183.56C393.21 183.56 392.95 183.3 392.95 182.99L392.95 179.8C392.95 179.49 393.21 179.23 393.52 179.23L399.03 179.23C399.34 179.23 399.6 179.49 399.6 179.8L399.6 182.99Z" />
		<path id="Layer" class="shp4" d="M387.06 211.4L377.17 211.4L377.17 189.95C377.17 189.56 377.25 189.17 377.4 188.8C377.55 188.44 377.77 188.11 378.05 187.83C378.33 187.55 378.66 187.33 379.02 187.18C379.39 187.03 379.78 186.95 380.17 186.95L384.1 186.95C384.49 186.95 384.88 187.03 385.25 187.18C385.61 187.33 385.94 187.55 386.22 187.83C386.5 188.11 386.72 188.44 386.87 188.8C387.02 189.17 387.1 189.56 387.1 189.95L387.1 211.4C764.22 453.4 764.22 453.4 764.22 453.4L764.22 453.4L764.22 453.4L764.22 453.4L387.06 211.4Z" />
		<path id="Layer" class="shp5" d="M385.03 186.49C385.03 186.77 384.81 186.99 384.53 186.99L379.69 186.99C379.41 186.99 379.19 186.77 379.19 186.49L379.19 183.69C379.19 183.41 379.41 183.19 379.69 183.19L384.53 183.19C384.81 183.19 385.03 183.41 385.03 183.69L385.03 186.49Z" />
		<path id="Layer" class="shp5" d="M425.5 211.41L406.34 211.41L406.34 188.63C406.34 188.13 406.44 187.63 406.63 187.16C406.82 186.7 407.11 186.28 407.46 185.92C407.82 185.57 408.24 185.28 408.7 185.09C409.17 184.9 409.67 184.8 410.17 184.8L421.68 184.8C422.18 184.8 422.68 184.9 423.15 185.09C423.61 185.28 424.03 185.57 424.39 185.92C424.74 186.28 425.03 186.7 425.22 187.16C425.41 187.63 425.51 188.13 425.51 188.63L425.51 211.41C831.84 451.22 831.84 451.22 831.84 451.22L831.84 451.22L831.84 451.22L831.84 451.22L425.5 211.41Z" />
		<path id="Layer" class="shp5" d="M418.95 187.63L412.9 187.63L412.9 180.44C412.9 180.28 412.93 180.12 412.99 179.98C413.05 179.83 413.14 179.7 413.25 179.58C413.37 179.47 413.5 179.38 413.65 179.32C413.79 179.26 413.95 179.23 414.11 179.23L417.74 179.23C417.9 179.23 418.06 179.26 418.2 179.32C418.35 179.38 418.48 179.47 418.6 179.58C418.71 179.7 418.8 179.83 418.86 179.98C418.92 180.12 418.95 180.28 418.95 180.44L418.95 187.63C831.84 421.85 831.84 421.85 831.84 421.85L831.84 421.85L831.84 421.85L831.84 421.85L418.95 187.63Z" />
		<path id="Layer" class="shp4" d="M305.94 190.16L309.57 190.16C309.92 190.16 310.26 190.23 310.58 190.36C310.9 190.49 311.19 190.69 311.44 190.93C311.68 191.18 311.88 191.47 312.01 191.79C312.14 192.11 312.21 192.45 312.21 192.8L312.21 211.41L303.3 211.41L303.3 192.8C303.3 192.45 303.37 192.11 303.5 191.79C303.63 191.47 303.83 191.18 304.07 190.93C304.32 190.69 304.61 190.49 304.93 190.36C305.25 190.23 305.59 190.16 305.94 190.16L305.94 190.16Z" />
		<path id="Layer" class="shp5" d="M305.13 187.3C305.13 187.06 305.33 186.86 305.57 186.86L309.95 186.86C310.19 186.86 310.39 187.06 310.39 187.3L310.39 189.73C310.39 189.97 310.19 190.17 309.95 190.17L305.57 190.17C305.33 190.17 305.13 189.97 305.13 189.73L305.13 187.3Z" />
		<path id="Layer" class="shp4" d="M317.35 192.78L320.53 192.78C320.83 192.78 321.13 192.84 321.41 192.96C321.69 193.07 321.95 193.24 322.16 193.46C322.38 193.67 322.55 193.93 322.66 194.21C322.78 194.49 322.84 194.79 322.84 195.09L322.84 211.41L315 211.41L315 195.09C315 194.78 315.06 194.48 315.18 194.2C315.3 193.91 315.47 193.66 315.69 193.44C315.91 193.23 316.17 193.06 316.45 192.94C316.74 192.83 317.04 192.77 317.35 192.78L317.35 192.78Z" />
		<path id="Layer" class="shp5" d="M316.64 190.27C316.64 190.05 316.81 189.88 317.03 189.88L320.86 189.88C321.08 189.88 321.25 190.05 321.25 190.27L321.25 192.39C321.25 192.61 321.08 192.78 320.86 192.78L317.03 192.78C316.81 192.78 316.64 192.61 316.64 192.39L316.64 190.27Z" />
		<path id="Layer" class="shp5" d="M287.65 191.12L296.85 191.12C297.24 191.12 297.63 191.2 298 191.35C298.36 191.5 298.69 191.72 298.97 192C299.25 192.28 299.47 192.61 299.62 192.97C299.77 193.34 299.85 193.73 299.85 194.12L299.85 211.45L284.68 211.45L284.68 194.09C284.68 193.7 284.76 193.32 284.91 192.96C285.06 192.6 285.28 192.27 285.56 192C285.83 191.72 286.16 191.5 286.52 191.35C286.88 191.2 287.26 191.12 287.65 191.12L287.65 191.12Z" />
		<path id="Layer" class="shp5" d="M290.8 186.86L293.7 186.86C293.82 186.86 293.95 186.88 294.06 186.93C294.17 186.98 294.28 187.05 294.36 187.14C294.45 187.22 294.52 187.33 294.57 187.44C294.62 187.55 294.64 187.68 294.64 187.8L294.64 193.27L289.86 193.27L289.86 187.8C289.86 187.68 289.88 187.55 289.93 187.44C289.98 187.33 290.05 187.22 290.14 187.14C290.22 187.05 290.33 186.98 290.44 186.93C290.55 186.88 290.68 186.86 290.8 186.86L290.8 186.86Z" />
		<path id="Layer" class="shp5" d="M97.68 249.53L101.55 253.63C101.55 253.63 103.95 248.26 107.49 246.14C107.68 246.02 107.85 245.85 107.96 245.65C108.08 245.45 108.14 245.23 108.15 245C108.16 244.77 108.12 244.54 108.02 244.33C107.93 244.12 107.78 243.94 107.6 243.8L105.46 242.11C105.33 242.01 105.19 241.92 105.03 241.87C104.88 241.81 104.71 241.78 104.55 241.78C104.39 241.78 104.22 241.81 104.07 241.87C103.91 241.92 103.77 242.01 103.64 242.11C102.08 243.49 99 246.44 97.68 249.53Z" />
		<path id="Layer" class="shp3" d="M97 242.6L111.1 263.35L103.1 271.35L82.3 257.26C81.02 256.39 79.94 255.24 79.15 253.9C78.36 252.57 77.88 251.07 77.73 249.52C77.58 247.98 77.78 246.42 78.31 244.96C78.83 243.5 79.67 242.17 80.77 241.07L80.77 241.07C81.87 239.97 83.2 239.12 84.66 238.59C86.13 238.06 87.69 237.86 89.25 238.01C90.8 238.15 92.3 238.64 93.64 239.43C94.98 240.23 96.13 241.31 97 242.6L97 242.6Z" />
		<path id="Layer" class="shp3" d="M92.93 242.5L100.25 252.36C100.25 252.36 106.82 241.36 115.02 237.68C115.47 237.46 115.86 237.14 116.16 236.75C116.45 236.35 116.65 235.89 116.74 235.4C116.82 234.91 116.78 234.41 116.63 233.93C116.48 233.46 116.22 233.03 115.87 232.68L111.66 228.47C111.4 228.21 111.11 228 110.78 227.84C110.45 227.68 110.09 227.58 109.73 227.55C109.37 227.52 109 227.55 108.65 227.64C108.29 227.73 107.96 227.88 107.66 228.09C104 230.57 96.48 236.14 92.93 242.5Z" />
		<path id="Layer" class="shp5" d="M394.21 249.53L398.08 253.63C398.08 253.63 400.48 248.26 404.02 246.14C404.21 246.02 404.38 245.85 404.49 245.65C404.61 245.45 404.67 245.23 404.68 245C404.69 244.77 404.65 244.54 404.55 244.33C404.46 244.12 404.31 243.94 404.13 243.8L402 242.11C401.87 242.01 401.73 241.92 401.57 241.87C401.41 241.81 401.25 241.78 401.09 241.78C400.92 241.78 400.76 241.81 400.6 241.87C400.44 241.92 400.3 242.01 400.17 242.11C398.61 243.49 395.48 246.44 394.21 249.53Z" />
		<path id="Layer" class="shp3" d="M393.49 242.6L407.59 263.35L399.59 271.35L378.84 257.25C377.56 256.38 376.48 255.23 375.69 253.89C374.9 252.56 374.42 251.06 374.27 249.51C374.12 247.97 374.32 246.41 374.85 244.95C375.37 243.49 376.21 242.16 377.31 241.06L377.31 241.06C378.41 239.97 379.74 239.13 381.2 238.6C382.66 238.08 384.22 237.88 385.76 238.03C387.31 238.18 388.8 238.66 390.14 239.45C391.47 240.24 392.62 241.32 393.49 242.6Z" />
		<path id="Layer" class="shp3" d="M389.46 242.5L396.78 252.36C396.78 252.36 403.35 241.36 411.55 237.68C412 237.46 412.39 237.14 412.69 236.75C412.98 236.35 413.18 235.89 413.27 235.4C413.35 234.91 413.31 234.41 413.16 233.93C413.01 233.46 412.75 233.03 412.4 232.68L408.19 228.47C407.94 228.22 407.64 228.01 407.31 227.85C406.99 227.7 406.64 227.61 406.28 227.57C405.93 227.54 405.56 227.56 405.22 227.65C404.87 227.74 404.54 227.89 404.24 228.09C400.52 230.57 393 236.14 389.46 242.5Z" />
	</g>
	<g id="freepik--Shadow--inject-11">
		<path id="freepik--path--inject-11" class="shp4" d="M250 372.56C142.78 372.56 56.11 367.5 56.11 361.24C56.11 354.98 142.78 349.92 250 349.92C357.22 349.92 443.89 354.98 443.89 361.24C443.89 367.5 357.22 372.56 250 372.56Z" />
	</g>
	<g id="freepik--Mirror--inject-11">
		<path id="Layer" class="shp6" d="M251.66 76.89L252.66 76.89L252.66 83.67L251.66 83.67L251.66 76.89Z" />
		<path id="Layer" class="shp6" d="M251.66 54.44L252.66 54.44L252.66 71.55L251.66 71.55L251.66 54.44Z" />
		<path id="Layer" class="shp6" d="M100.2 41.95L249.16 41.95L249.16 170.37L100.2 170.37L100.2 41.95Z" />
		<path id="Layer" class="shp6" d="M100.2 170.37L98.47 170.37L98.47 41.95L100.2 41.95L100.2 170.37Z" />
		<path id="Layer" class="shp7" d="M100.2 170.37L98.47 170.37L98.47 41.95L100.2 41.95L100.2 170.37Z" />
		<path id="Layer" class="shp8" d="M248.45 42.59L248.45 169.72L100.92 169.72L100.92 42.59L248.45 42.59Z" />
		<g id="Layer" style="opacity: 0.4">
			<path id="Layer" fill-rule="evenodd" class="shp9" d="M239.23 107.22C239.26 107.53 239.24 107.84 239.17 108.15C239.1 108.46 238.99 108.75 238.83 109.02C238.67 109.29 238.46 109.53 238.23 109.74C238.09 109.87 237.93 110 237.78 110.11C237.62 110.23 237.46 110.34 237.29 110.44C237.12 110.54 236.95 110.63 236.77 110.71C236.6 110.79 236.41 110.87 236.23 110.93L231.98 112.31C231.84 112.35 231.7 112.39 231.56 112.43C231.41 112.46 231.27 112.49 231.13 112.51C230.98 112.53 230.84 112.55 230.69 112.56C230.54 112.57 230.4 112.58 230.25 112.58C230.15 114.22 230.03 115.83 229.88 117.47C229.62 119.92 229.32 122.39 228.93 124.85C228.83 125.48 228.73 126.11 228.61 126.74C228.5 127.37 228.37 127.99 228.23 128.62C228.1 129.24 227.95 129.86 227.8 130.48C227.64 131.1 227.48 131.72 227.3 132.33C227.21 132.68 227.11 133.02 226.99 133.36C226.88 133.7 226.77 134.04 226.64 134.37C226.51 134.7 226.37 135.03 226.23 135.36C226.08 135.69 225.93 136.01 225.77 136.33C225.66 136.56 225.54 136.78 225.41 136.99C225.29 137.21 225.15 137.41 225 137.62C224.85 137.82 224.7 138.01 224.53 138.2C224.37 138.39 224.19 138.57 224.01 138.74C223.84 138.89 223.66 139.03 223.48 139.16C223.29 139.3 223.1 139.41 222.9 139.52C222.7 139.63 222.49 139.72 222.28 139.8C222.07 139.88 221.85 139.95 221.63 140C221.48 140.03 221.33 140.06 221.18 140.08C221.03 140.1 220.88 140.11 220.73 140.12C220.58 140.12 220.43 140.12 220.28 140.11C220.13 140.1 219.98 140.08 219.83 140.06C219.76 140.05 219.69 140.04 219.62 140.02C219.55 140.01 219.48 139.99 219.41 139.98C219.34 139.96 219.27 139.94 219.2 139.92C219.13 139.9 219.07 139.87 219 139.85C218.94 139.83 218.88 139.81 218.82 139.79C218.76 139.77 218.7 139.74 218.65 139.72C218.59 139.69 218.53 139.67 218.48 139.64C218.42 139.61 218.36 139.58 218.31 139.55L217.99 139.38L217.85 139.3L217.64 139.16L217.21 138.89C216.93 138.71 216.64 138.54 216.36 138.34C215.8 137.97 215.25 137.57 214.71 137.16C214.44 136.96 214.18 136.75 213.91 136.54C213.65 136.33 213.39 136.12 213.14 135.9C212.88 135.69 212.63 135.47 212.38 135.24C212.13 135.02 211.88 134.79 211.64 134.56C211.16 134.11 210.69 133.65 210.23 133.18C209.76 132.71 209.31 132.22 208.87 131.73C208.43 131.24 208.01 130.74 207.59 130.23C207.17 129.72 206.76 129.2 206.37 128.67C205.63 127.67 204.95 126.67 204.28 125.67C203.89 127.72 203.56 129.63 203.28 131.41C203.42 131.82 203.51 132.24 203.55 132.66C203.6 133.09 203.59 133.52 203.54 133.94C203.49 134.37 203.39 134.79 203.24 135.19C203.09 135.59 202.9 135.98 202.67 136.34C202.67 136.35 202.66 136.36 202.66 136.37C202.66 136.38 202.65 136.38 202.65 136.39C202.64 136.4 202.63 136.41 202.63 136.42C202.62 136.43 202.62 136.43 202.61 136.44C202.48 137.82 202.37 139.21 202.29 140.6C202.21 141.99 202.15 143.38 202.13 144.77C202.1 146.16 202.1 147.55 202.13 148.94C202.15 150.33 202.21 151.72 202.29 153.11L203.86 153.11L203.79 155.83C203.79 155.83 206.35 161.21 209.48 169.71L169.68 169.71C170.08 163.79 170.33 159.06 170.19 156.31L169.34 153.11L170.34 153.11C169.36 146.91 168.59 141.59 167.99 137L167.81 136.48C167.14 138.19 166.43 139.85 165.65 141.48C165.59 141.63 165.52 141.77 165.45 141.92C165.38 142.06 165.31 142.21 165.24 142.35C165.17 142.49 165.1 142.64 165.02 142.78C164.95 142.92 164.87 143.06 164.79 143.2C164.71 143.35 164.62 143.49 164.53 143.64C164.44 143.79 164.35 143.93 164.26 144.07C164.17 144.21 164.07 144.36 163.98 144.5C163.88 144.64 163.78 144.77 163.68 144.91C162.93 145.92 162.17 146.81 161.39 147.68C159.85 149.41 158.23 150.98 156.61 152.52C153.56 155.38 150.41 158.04 147.11 160.58L147.06 160.68C146.87 161.05 146.63 161.4 146.36 161.72C146.09 162.04 145.78 162.33 145.45 162.58C145.11 162.84 144.75 163.05 144.37 163.22C143.98 163.39 143.58 163.52 143.17 163.6L138.79 164.47C138.59 164.51 138.4 164.54 138.2 164.57C138 164.59 137.8 164.6 137.6 164.6C137.4 164.6 137.2 164.59 137 164.57C136.8 164.54 136.61 164.51 136.41 164.47C136.11 164.4 135.82 164.28 135.55 164.12C135.29 163.96 135.05 163.76 134.85 163.53C134.64 163.29 134.48 163.03 134.35 162.74C134.23 162.46 134.15 162.16 134.12 161.85L133.92 159.97C133.87 159.5 133.92 159.03 134.06 158.59C134.19 158.14 134.42 157.72 134.72 157.36C135.01 157 135.38 156.71 135.8 156.49C136.21 156.27 136.66 156.14 137.13 156.1L140.13 155.84C140.55 155.8 140.97 155.8 141.4 155.82C141.82 155.84 142.24 155.9 142.65 155.98C143.07 156.07 143.47 156.18 143.87 156.33C144.27 156.47 144.66 156.64 145.03 156.84C147.45 154.04 149.9 151.24 152.25 148.43C153.66 146.76 155 145.08 156.25 143.43C156.87 142.6 157.45 141.77 157.94 140.97C158 140.88 158.05 140.79 158.1 140.7C158.16 140.61 158.21 140.52 158.26 140.43C158.31 140.34 158.36 140.24 158.41 140.15C158.46 140.06 158.5 139.96 158.55 139.87C158.65 139.67 158.88 139.05 159.07 138.6C159.85 136.67 160.57 134.69 161.2 132.67C161.83 130.65 162.45 128.63 163 126.59C163.55 124.55 164.02 122.48 164.49 120.41C164.78 119.13 165.04 117.8 165.27 116.51C164.59 115.28 163.97 114.71 164.1 114.51C164.23 114.31 164.37 114.11 164.52 113.92C164.67 113.73 164.82 113.54 164.98 113.36C165.13 113.18 165.29 113 165.46 112.82C165.63 112.65 165.8 112.48 165.98 112.32C166.39 111.93 166.82 111.56 167.26 111.21C167.71 110.86 168.18 110.54 168.66 110.25C169.14 109.95 169.64 109.69 170.16 109.44C170.67 109.2 171.19 108.99 171.73 108.81C172 108.66 172.27 108.51 172.55 108.38C172.83 108.25 173.11 108.14 173.4 108.03C173.69 107.93 173.98 107.84 174.28 107.76C174.58 107.68 174.88 107.61 175.18 107.56C175.27 107.35 175.37 107.14 175.47 106.93C175.68 106.85 175.89 106.78 176.1 106.71C176.32 106.64 176.53 106.57 176.75 106.51C176.96 106.44 177.18 106.39 177.4 106.33C177.61 106.28 177.83 106.23 178.05 106.18C177.99 106.36 177.95 106.53 177.89 106.72C178.11 106.67 178.32 106.63 178.54 106.6C178.76 106.56 178.97 106.53 179.19 106.5C179.41 106.48 179.63 106.46 179.85 106.44C180.07 106.42 180.29 106.41 180.51 106.4C180.51 106.4 180.55 106.57 180.63 106.83C184.27 105.83 185.06 103.47 184.83 100.83C184.82 100.74 184.82 100.65 184.81 100.56C184.8 100.47 184.79 100.38 184.77 100.29C184.76 100.2 184.75 100.11 184.74 100.03C184.72 99.94 184.71 99.85 184.69 99.76C184.67 99.61 184.66 99.51 184.61 99.29C184.56 99.07 184.52 98.87 184.47 98.66L184.41 98.45C183.24 98.41 182.09 98.15 181.01 97.69C179.94 97.22 178.96 96.56 178.13 95.73C177.3 94.9 176.64 93.92 176.17 92.85C175.71 91.77 175.45 90.62 175.41 89.45C175.41 89.15 175.41 88.84 175.41 88.51C173.4 88.04 171.02 86.61 169.6 82.81C177.83 81.42 176.84 69.27 183.21 68.27C182.55 64.65 192.81 64.75 198.39 67.52C205.35 70.99 208.47 79.73 203.96 86.17C205.83 87.12 207.06 88.77 205.06 90.58C205.01 90.63 204.96 90.67 204.9 90.72C204.85 90.76 204.79 90.8 204.73 90.84C204.67 90.88 204.61 90.92 204.55 90.96C204.49 90.99 204.43 91.03 204.37 91.06C204.94 96.21 198.99 99.89 192.37 99.54C192.36 100.05 192.38 100.57 192.43 101.08C192.48 101.59 192.55 102.1 192.65 102.61C192.75 103.11 192.88 103.61 193.04 104.1C193.19 104.59 193.37 105.07 193.58 105.54C193.89 105.35 194.09 105.25 194.09 105.25C194.09 105.25 194.93 105.74 195.76 106.2C195.78 106.15 195.8 106.11 195.82 106.06C195.85 106.01 195.87 105.97 195.89 105.92C195.92 105.87 195.94 105.83 195.97 105.78C196 105.74 196.02 105.69 196.05 105.65C196.25 105.68 196.45 105.72 196.65 105.76C196.85 105.8 197.04 105.84 197.24 105.89C197.43 105.94 197.63 105.99 197.82 106.05C198.02 106.11 198.21 106.17 198.4 106.24C198.4 106.24 198.27 106.6 198.08 107.24L198.6 107.29C198.76 107.31 198.91 107.34 199.07 107.36C199.23 107.39 199.38 107.42 199.54 107.45C199.69 107.48 199.85 107.52 200 107.55C200.15 107.59 200.31 107.63 200.46 107.67C200.78 107.76 201.1 107.86 201.41 107.98C201.72 108.1 202.02 108.23 202.32 108.38C202.61 108.53 202.9 108.69 203.19 108.87C203.47 109.05 203.74 109.24 204 109.44C204.39 109.7 204.77 109.98 205.14 110.27C205.5 110.57 205.85 110.88 206.19 111.21C206.52 111.54 206.84 111.88 207.15 112.24C207.45 112.6 207.73 112.97 208 113.36L207.25 114.62C207.36 114.85 207.45 115.06 207.56 115.28C208.05 116.28 208.56 117.28 209.12 118.28C209.39 118.78 209.67 119.27 209.95 119.76C210.24 120.24 210.53 120.73 210.83 121.21C211.12 121.69 211.43 122.16 211.74 122.63C212.05 123.1 212.37 123.57 212.7 124.03C213.36 124.95 214.06 125.83 214.76 126.69C215.46 127.55 216.19 128.38 216.97 129.17C217.16 129.37 217.35 129.56 217.54 129.75C217.74 129.94 217.93 130.13 218.13 130.32C218.33 130.51 218.53 130.69 218.73 130.87C218.94 131.05 219.14 131.23 219.35 131.41C219.63 131.66 219.92 131.89 220.21 132.11C220.49 131.54 220.77 130.91 221.02 130.25C221.22 129.71 221.42 129.16 221.61 128.61C221.79 128.06 221.97 127.51 222.15 126.96C222.32 126.41 222.49 125.85 222.65 125.3C222.81 124.74 222.96 124.18 223.11 123.62C223.76 121.3 224.34 118.97 224.88 116.62C225.36 114.62 225.82 112.62 226.26 110.62C226.25 110.54 226.25 110.45 226.25 110.37C226.25 110.29 226.24 110.2 226.24 110.12C226.24 110.04 226.25 109.95 226.25 109.87C226.25 109.79 226.25 109.7 226.26 109.62C226.26 109.6 226.26 109.58 226.26 109.56C226.26 109.54 226.26 109.52 226.26 109.5C226.26 109.47 226.26 109.45 226.26 109.43C226.26 109.41 226.26 109.39 226.26 109.37C226.37 108.4 226.74 107.09 226.99 105.83C226.81 105.63 226.66 105.4 226.55 105.16C226.44 104.91 226.37 104.65 226.34 104.39C226.3 104.12 226.31 103.85 226.36 103.59C226.41 103.32 226.5 103.07 226.62 102.83C226.64 102.77 226.67 102.71 226.7 102.65C226.72 102.58 226.75 102.52 226.78 102.47C226.81 102.41 226.84 102.35 226.88 102.29C226.91 102.23 226.94 102.18 226.98 102.12C226.98 102.1 226.98 102.08 226.98 102.07C226.98 102.05 226.98 102.03 226.98 102.01C226.98 101.99 226.98 101.97 226.98 101.95C226.98 101.94 226.98 101.92 226.98 101.9C226.98 101.89 226.98 101.89 226.98 101.88C226.98 101.87 226.98 101.87 226.98 101.86C226.98 101.85 226.98 101.85 226.98 101.84C226.98 101.83 226.98 101.83 226.98 101.82C226.98 101.7 226.98 101.51 226.98 101.4C226.98 101.37 226.98 101.35 226.97 101.32C226.97 101.3 226.97 101.27 226.97 101.25C226.97 101.22 226.97 101.19 226.97 101.17C226.98 101.14 226.98 101.12 226.98 101.09C226.98 101.07 226.99 101.05 226.99 101.03C227 101.02 227 101 227 100.98C227.01 100.96 227.02 100.94 227.02 100.92C227.03 100.91 227.03 100.89 227.04 100.87C227.05 100.86 227.06 100.85 227.07 100.83C227.08 100.82 227.1 100.81 227.11 100.8C227.12 100.79 227.13 100.78 227.15 100.77C227.16 100.76 227.18 100.76 227.19 100.75C227.21 100.75 227.23 100.74 227.25 100.74C227.27 100.74 227.29 100.74 227.32 100.74C227.34 100.74 227.36 100.74 227.38 100.74C227.4 100.74 227.42 100.75 227.44 100.75C227.48 100.76 227.52 100.77 227.56 100.79C227.6 100.8 227.64 100.82 227.68 100.84C227.72 100.85 227.76 100.87 227.8 100.89C227.84 100.91 227.87 100.94 227.91 100.96L228.05 101.06L228.1 101.06C228.19 101.01 228.28 100.96 228.38 100.93C228.48 100.9 228.58 100.87 228.68 100.86C228.78 100.85 228.89 100.85 228.99 100.86C229.09 100.87 229.19 100.9 229.29 100.93C229.38 100.97 229.46 101.01 229.53 101.07C229.61 101.12 229.68 101.18 229.75 101.25C229.81 101.32 229.87 101.39 229.92 101.47C229.97 101.55 230.01 101.63 230.04 101.72L231.53 97.92L230.97 96.65L228.41 95.65C228.01 94.71 227.66 93.74 227.36 92.76C227.06 91.78 226.82 90.78 226.63 89.77C226.44 88.76 226.3 87.75 226.22 86.72C226.14 85.7 226.11 84.68 226.14 83.65L231.94 96.87L237.44 82.77C237.51 83.79 237.52 84.81 237.48 85.82C237.44 86.84 237.35 87.86 237.2 88.87C237.05 89.87 236.84 90.87 236.59 91.86C236.33 92.85 236.02 93.82 235.66 94.77L233.14 95.87L232.38 97.87L234.3 102.26C234.33 102.17 234.37 102.08 234.41 102C234.46 101.92 234.51 101.84 234.57 101.77C234.64 101.7 234.71 101.63 234.78 101.58C234.85 101.52 234.94 101.47 235.02 101.43C235.92 101.03 237.14 101.84 237.75 103.23C237.79 103.31 237.82 103.39 237.85 103.47C237.88 103.55 237.91 103.64 237.93 103.72C237.96 103.8 237.98 103.89 238 103.97C238.02 104.06 238.04 104.14 238.05 104.23C238.07 104.26 238.08 104.29 238.1 104.31C238.12 104.34 238.13 104.37 238.15 104.4C238.17 104.43 238.18 104.45 238.2 104.48C238.21 104.51 238.23 104.54 238.24 104.57L239 106.31C239.12 106.6 239.2 106.9 239.23 107.22ZM219.31 133.42C219.31 133.42 219.3 133.45 219.32 133.42L219.31 133.42ZM227.19 104.91C227.2 104.81 227.2 104.7 227.21 104.6C227.22 104.5 227.22 104.39 227.22 104.29C227.22 104.19 227.23 104.08 227.23 103.98C227.22 103.88 227.22 103.77 227.22 103.67C227.22 103.6 227.22 103.51 227.22 103.41C227.22 103.4 227.22 103.4 227.22 103.39C227.22 103.39 227.22 103.38 227.22 103.38C227.22 103.37 227.22 103.36 227.22 103.36C227.22 103.35 227.22 103.35 227.22 103.34L227.22 103.11C227.22 103.1 227.22 103.1 227.22 103.09C227.22 103.09 227.22 103.08 227.22 103.08C227.22 103.07 227.22 103.06 227.22 103.06C227.22 103.05 227.22 103.05 227.22 103.04L227.16 102.78L227.1 102.91C227.02 103.07 226.97 103.23 226.93 103.4C226.9 103.57 226.88 103.75 226.89 103.92C226.89 104.09 226.92 104.27 226.97 104.43C227.02 104.6 227.09 104.76 227.18 104.91L227.19 104.91ZM229.61 103.5C229.84 102.61 229.6 101.79 229 101.56C228.97 101.55 228.94 101.54 228.91 101.53C228.88 101.53 228.85 101.52 228.82 101.51C228.79 101.51 228.76 101.51 228.73 101.5C228.7 101.5 228.67 101.5 228.64 101.5C228.64 101.51 228.65 101.52 228.65 101.52C228.66 101.53 228.66 101.54 228.67 101.54C228.67 101.55 228.68 101.56 228.68 101.56C228.69 101.57 228.69 101.57 228.7 101.58L228.82 101.77C228.89 101.87 228.95 101.98 229.02 102.1C229.03 102.11 229.03 102.12 229.04 102.13C229.04 102.14 229.05 102.15 229.06 102.16C229.06 102.17 229.07 102.18 229.07 102.19C229.08 102.2 229.08 102.21 229.09 102.22C229.14 102.32 229.19 102.43 229.24 102.53C229.29 102.63 229.34 102.74 229.38 102.85C229.42 102.95 229.46 103.06 229.5 103.17C229.53 103.28 229.57 103.39 229.6 103.5L229.61 103.5ZM232.15 103.39C232.24 103.27 232.33 103.16 232.44 103.06C232.55 102.96 232.67 102.87 232.8 102.79C232.92 102.72 233.06 102.66 233.2 102.61C233.34 102.56 233.48 102.53 233.63 102.51L232 98.81L230 104C229.99 104.03 229.98 104.06 229.97 104.09C229.96 104.12 229.94 104.15 229.93 104.18C229.92 104.21 229.91 104.24 229.89 104.26C229.88 104.29 229.86 104.32 229.85 104.35C229.85 104.4 229.77 104.56 229.85 104.51C229.93 104.46 230.01 104.41 230.09 104.37C230.18 104.32 230.26 104.27 230.34 104.23C230.43 104.19 230.51 104.14 230.59 104.1C230.68 104.06 230.76 104.02 230.85 103.98L232.14 103.39L232.15 103.39ZM236 102.61C236.11 102.65 236.22 102.69 236.33 102.73C236.43 102.78 236.54 102.83 236.64 102.89C236.74 102.95 236.84 103.01 236.93 103.08C237.03 103.14 237.12 103.21 237.21 103.29C236.76 102.37 235.93 101.85 235.31 102.12C235.27 102.14 235.23 102.16 235.19 102.19C235.15 102.21 235.11 102.24 235.08 102.27C235.05 102.3 235.01 102.33 234.98 102.37C234.95 102.4 234.93 102.44 234.9 102.48C234.98 102.48 235.07 102.48 235.15 102.48C235.24 102.49 235.32 102.5 235.4 102.51C235.49 102.52 235.57 102.53 235.65 102.55C235.74 102.57 235.82 102.59 235.9 102.61L236 102.61Z" />
			<path id="Layer" class="shp6" d="M168.18 169.72L108 169.72C108.08 168.87 108.32 168.05 108.72 167.29C109.11 166.54 109.64 165.86 110.29 165.31C110.94 164.75 111.68 164.33 112.49 164.06C113.3 163.78 114.15 163.67 115 163.72L158.76 163.72C159.73 163.76 160.7 163.94 161.63 164.23C162.56 164.52 163.45 164.94 164.27 165.46C165.09 165.99 165.84 166.62 166.5 167.34C167.16 168.05 167.73 168.86 168.18 169.72Z" />
			<path id="Layer" class="shp10" d="M162.05 136.43C165.48 136.74 165.17 134.18 165.17 134.18C165.17 134.18 162.34 127.18 159.9 126.01C162.54 124.66 165.28 122.01 163.76 118.06C162.24 114.11 156.37 112.06 151.28 112.9C152.41 114.9 147.12 117.08 140.76 116.63C134.4 116.18 129.64 120.71 133.46 123.63C127.29 123.63 126.65 131.96 131.16 137.17C139.05 146.29 144.05 153.48 149.39 154.47C154.73 155.46 167.72 147.83 162.05 136.43Z" />
			<path id="Layer" class="shp6" d="M185.17 169.72L119.58 169.72C123.15 164.59 129.47 160.86 140.11 160.03L144.41 159.69L144.57 159.69C144.57 159.68 144.57 159.67 144.57 159.66C144.57 159.64 144.57 159.63 144.57 159.62C144.57 159.61 144.57 159.6 144.57 159.58C144.57 159.57 144.57 159.56 144.57 159.55C144.57 159.46 144.57 159.37 144.58 159.28C144.58 159.19 144.59 159.1 144.6 159.01C144.61 158.92 144.62 158.83 144.64 158.74C144.65 158.66 144.67 158.57 144.69 158.48C143.13 158.48 140.29 158.31 140.92 156.43C141.29 155.33 141.75 154.98 142.38 155.08C142.29 154.95 142.22 154.81 142.18 154.65C142.14 154.5 142.14 154.34 142.17 154.18C142.19 154.03 142.25 153.88 142.34 153.74C142.43 153.61 142.54 153.5 142.67 153.41C144.67 151.78 145.1 153.58 146.32 156.31C147.74 156.36 149.15 156.46 150.56 156.61C151.97 156.76 153.37 156.96 154.77 157.21C156.16 157.46 157.55 157.76 158.92 158.11C160.29 158.46 161.66 158.86 163 159.31C164.24 159.36 165.47 159.47 166.69 159.64C167.92 159.82 169.13 160.05 170.34 160.34C171.54 160.63 172.73 160.98 173.89 161.39C175.06 161.79 176.21 162.26 177.33 162.78C178.12 163.17 178.89 163.61 179.62 164.1C180.36 164.6 181.06 165.14 181.72 165.72C182.38 166.31 183 166.94 183.58 167.61C184.15 168.27 184.69 168.98 185.17 169.72Z" />
			<path id="Layer" class="shp11" d="M185.17 169.72L119.58 169.72C123.15 164.59 129.47 160.86 140.11 160.03L144.41 159.69L144.57 159.69C144.57 159.68 144.57 159.67 144.57 159.66C144.57 159.64 144.57 159.63 144.57 159.62C144.57 159.61 144.57 159.6 144.57 159.58C144.57 159.57 144.57 159.56 144.57 159.55C144.57 159.46 144.57 159.37 144.58 159.28C144.58 159.19 144.59 159.1 144.6 159.01C144.61 158.92 144.62 158.83 144.64 158.74C144.65 158.66 144.67 158.57 144.69 158.48C143.13 158.48 140.29 158.31 140.92 156.43C141.29 155.33 141.75 154.98 142.38 155.08C142.29 154.95 142.22 154.81 142.18 154.65C142.14 154.5 142.14 154.34 142.17 154.18C142.19 154.03 142.25 153.88 142.34 153.74C142.43 153.61 142.54 153.5 142.67 153.41C144.67 151.78 145.1 153.58 146.32 156.31C147.74 156.36 149.15 156.46 150.56 156.61C151.97 156.76 153.37 156.96 154.77 157.21C156.16 157.46 157.55 157.76 158.92 158.11C160.29 158.46 161.66 158.86 163 159.31C164.24 159.36 165.47 159.47 166.69 159.64C167.92 159.82 169.13 160.05 170.34 160.34C171.54 160.63 172.73 160.98 173.89 161.39C175.06 161.79 176.21 162.26 177.33 162.78C178.12 163.17 178.89 163.61 179.62 164.1C180.36 164.6 181.06 165.14 181.72 165.72C182.38 166.31 183 166.94 183.58 167.61C184.15 168.27 184.69 168.98 185.17 169.72Z" />
			<path id="Layer" class="shp12" d="M147.1 139.61C148.43 146.43 149.77 158.91 145 163.46C145 163.46 147 168.46 159.63 168.46C173.55 168.46 166.17 163.46 166.17 163.46C158.58 161.64 158.77 156.01 160.1 150.71L147.1 139.61Z" />
			<path id="Layer" class="shp7" d="M160.09 150.72L147.09 139.62C147.3 140.67 147.48 141.72 147.64 142.78C147.8 143.83 147.93 144.89 148.03 145.95C148.13 147.02 148.21 148.08 148.26 149.15C148.31 150.21 148.33 151.28 148.33 152.35C148.65 152.84 149 153.31 149.38 153.75C149.75 154.2 150.16 154.62 150.59 155.01C151.02 155.41 151.47 155.78 151.95 156.11C152.42 156.45 152.92 156.76 153.43 157.04C153.91 157.32 154.42 157.56 154.93 157.76C155.45 157.97 155.98 158.13 156.53 158.26C157.07 158.39 157.62 158.48 158.17 158.53C158.73 158.58 159.28 158.59 159.84 158.56C159 156.23 159.41 153.43 160.09 150.72Z" />
			<path id="Layer" class="shp12" d="M139.85 137C143.02 145.68 144.43 150.93 150.24 154.14C158.99 158.97 168.7 151.69 168.19 142.23C167.73 133.72 162.63 120.95 152.93 120C150.79 119.78 148.63 120.11 146.66 120.96C144.68 121.81 142.96 123.15 141.65 124.85C140.33 126.55 139.48 128.56 139.17 130.69C138.85 132.82 139.09 134.99 139.85 137L139.85 137Z" />
			<path id="Layer" class="shp10" d="M143.61 141.88C145.83 139.78 146.61 131.09 143.49 128.23C150.08 130.99 160.26 126.97 162.98 123.58C156.6 117.58 144.75 117.2 138.23 123.58C131.71 129.96 134.93 137.74 143.61 141.88Z" />
			<path id="Layer" class="shp12" d="M139.08 143.12C139.42 143.58 139.79 144.01 140.19 144.41C140.6 144.81 141.03 145.18 141.5 145.5C141.96 145.83 142.45 146.12 142.96 146.37C143.47 146.62 144.01 146.83 144.55 146.99C147.46 147.82 148.55 145.52 147.4 142.99C146.4 140.74 143.64 137.59 140.88 137.85C138.12 138.11 137.48 140.85 139.08 143.12Z" />
			<path id="Layer" class="shp10" d="M159.67 145.42C159.22 145.45 158.76 145.43 158.31 145.37C157.86 145.31 157.42 145.2 156.99 145.05C156.57 144.9 156.15 144.71 155.76 144.48C155.37 144.25 155.01 143.98 154.67 143.68C154.64 143.64 154.63 143.58 154.63 143.53C154.63 143.47 154.66 143.42 154.7 143.39C154.73 143.35 154.78 143.32 154.84 143.32C154.89 143.32 154.95 143.33 154.99 143.36C155.36 143.68 155.76 143.96 156.19 144.2C156.62 144.43 157.08 144.61 157.55 144.74C158.02 144.87 158.51 144.95 159 144.97C159.49 144.99 159.98 144.96 160.46 144.87C160.49 144.87 160.52 144.87 160.55 144.87C160.58 144.88 160.61 144.89 160.63 144.91C160.66 144.93 160.68 144.95 160.7 144.98C160.71 145 160.72 145.03 160.73 145.06C160.73 145.09 160.73 145.12 160.73 145.15C160.72 145.17 160.71 145.2 160.69 145.23C160.68 145.25 160.65 145.27 160.63 145.29C160.61 145.3 160.58 145.31 160.55 145.32C160.48 145.33 160.4 145.35 160.33 145.36C160.26 145.37 160.19 145.38 160.11 145.39C160.04 145.4 159.96 145.4 159.89 145.41C159.82 145.41 159.74 145.42 159.67 145.42L159.67 145.42Z" />
			<path id="Layer" class="shp10" d="M153.78 136.32C154.02 137.07 154.62 137.56 155.1 137.42C155.58 137.28 155.77 136.56 155.52 135.81C155.27 135.06 154.68 134.57 154.2 134.71C153.72 134.85 153.53 135.57 153.78 136.32Z" />
			<path id="Layer" class="shp10" d="M162.56 133.75C162.81 134.5 163.4 135 163.89 134.86C164.38 134.72 164.56 134 164.31 133.25C164.06 132.5 163.47 132.01 162.99 132.15C162.51 132.29 162.31 133 162.56 133.75Z" />
			<path id="Layer" class="shp13" d="M160.32 134.8C160.32 134.8 163.43 138.64 165.97 140.19C165.07 141.8 162.67 141.88 162.67 141.88L160.32 134.8Z" />
			<path id="Layer" class="shp10" d="M150.77 135.41C150.8 135.4 150.83 135.38 150.86 135.36C150.89 135.34 150.92 135.32 150.94 135.3C150.96 135.27 150.98 135.24 151 135.21C151.02 135.18 151.03 135.15 151.04 135.12C151.1 134.85 151.19 134.58 151.32 134.33C151.45 134.08 151.6 133.84 151.79 133.63C151.97 133.42 152.18 133.23 152.41 133.07C152.64 132.91 152.89 132.78 153.15 132.68C153.21 132.66 153.26 132.63 153.3 132.6C153.35 132.56 153.39 132.51 153.41 132.46C153.44 132.41 153.46 132.35 153.46 132.29C153.47 132.23 153.46 132.18 153.44 132.12C153.42 132.06 153.39 132.01 153.35 131.96C153.31 131.92 153.26 131.88 153.21 131.85C153.15 131.82 153.09 131.8 153.03 131.8C152.97 131.79 152.91 131.79 152.85 131.81C152.52 131.93 152.2 132.09 151.91 132.28C151.62 132.48 151.35 132.71 151.12 132.97C150.88 133.23 150.68 133.52 150.52 133.83C150.36 134.14 150.23 134.47 150.15 134.81C150.14 134.87 150.13 134.93 150.14 134.99C150.15 135.05 150.17 135.11 150.2 135.16C150.23 135.21 150.27 135.26 150.32 135.3C150.37 135.33 150.42 135.36 150.48 135.38C150.5 135.39 150.53 135.4 150.55 135.41C150.57 135.41 150.6 135.42 150.62 135.42C150.65 135.42 150.67 135.42 150.7 135.42C150.72 135.42 150.75 135.42 150.77 135.41Z" />
			<path id="Layer" class="shp10" d="M165 130.31C165.02 130.3 165.03 130.3 165.05 130.29C165.06 130.28 165.08 130.27 165.09 130.26C165.11 130.25 165.12 130.24 165.13 130.23C165.15 130.22 165.16 130.2 165.17 130.19C165.21 130.15 165.24 130.1 165.27 130.04C165.29 129.99 165.3 129.93 165.3 129.87C165.3 129.81 165.29 129.75 165.27 129.7C165.24 129.64 165.21 129.59 165.17 129.55C164.91 129.29 164.63 129.06 164.32 128.87C164.01 128.68 163.68 128.52 163.33 128.41C162.98 128.29 162.62 128.22 162.26 128.19C161.9 128.15 161.53 128.17 161.17 128.22C161.11 128.23 161.06 128.26 161.01 128.29C160.96 128.33 160.92 128.37 160.89 128.42C160.86 128.47 160.84 128.53 160.83 128.58C160.82 128.64 160.83 128.7 160.84 128.76C160.86 128.82 160.88 128.87 160.92 128.92C160.95 128.97 161 129.01 161.05 129.05C161.1 129.08 161.16 129.1 161.22 129.11C161.28 129.12 161.34 129.12 161.4 129.11L161.4 129.11C161.69 129.07 161.98 129.07 162.27 129.1C162.56 129.12 162.84 129.19 163.11 129.28C163.39 129.38 163.65 129.5 163.9 129.66C164.14 129.81 164.37 129.99 164.57 130.2C164.6 130.23 164.63 130.25 164.66 130.27C164.7 130.28 164.73 130.3 164.77 130.31C164.81 130.32 164.85 130.32 164.89 130.32C164.92 130.32 164.96 130.32 165 130.31Z" />
			<path id="Layer" class="shp6" d="M173.68 169.72L140.58 169.72C139.58 165.91 141.71 162.22 144.41 159.72C144.42 159.71 144.44 159.7 144.45 159.69C144.46 159.67 144.48 159.66 144.49 159.65C144.5 159.64 144.51 159.62 144.53 159.61C144.54 159.6 144.55 159.58 144.56 159.57C144.78 159.38 145 159.19 145.23 159C145.45 158.82 145.68 158.64 145.92 158.47C146.15 158.3 146.39 158.13 146.64 157.97C146.88 157.81 147.13 157.66 147.38 157.51C147.51 161.96 163.63 164.97 161.97 161.01C166.9 161.92 173.14 165.83 173.68 169.72Z" />
			<path id="Layer" class="shp11" d="M173.68 169.72L140.58 169.72C139.58 165.91 141.71 162.22 144.41 159.72C144.42 159.71 144.44 159.7 144.45 159.69C144.46 159.67 144.48 159.66 144.49 159.65C144.5 159.64 144.51 159.62 144.53 159.61C144.54 159.6 144.55 159.58 144.56 159.57C144.78 159.38 145 159.19 145.23 159C145.45 158.82 145.68 158.64 145.92 158.47C146.15 158.3 146.39 158.13 146.64 157.97C146.88 157.81 147.13 157.66 147.38 157.51C147.51 161.96 163.63 164.97 161.97 161.01C166.9 161.92 173.14 165.83 173.68 169.72Z" />
		</g>
		<path id="Layer" class="shp14" d="M184.15 169.72L156.27 169.72L178.12 42.59L206.01 42.59L184.15 169.72L184.15 169.72Z" />
		<path id="Layer" class="shp14" d="M205.6 169.72L193.84 169.72L215.7 42.59L227.46 42.59L205.6 169.72L205.6 169.72Z" />
	</g>
	<g id="freepik--character-1--inject-11">
		<path id="Layer" class="shp12" d="M262.45 176.17C263.01 178.17 263.45 179.91 263.87 181.78C264.29 183.65 264.67 185.49 265.04 187.35C265.74 191.08 266.33 194.84 266.73 198.65C266.84 199.61 266.93 200.58 267.02 201.54C267.1 202.51 267.16 203.48 267.22 204.45C267.27 205.41 267.31 206.38 267.34 207.35C267.37 208.32 267.38 209.29 267.38 210.26C267.39 211.27 267.37 212.29 267.33 213.3C267.29 214.32 267.22 215.33 267.13 216.34C267.03 217.35 266.92 218.36 266.77 219.36C266.63 220.36 266.46 221.36 266.27 222.36L266.2 222.69C266.18 222.8 266.15 222.91 266.12 223.01C266.09 223.12 266.06 223.22 266.02 223.33C265.98 223.43 265.94 223.53 265.89 223.63C265.85 223.73 265.8 223.83 265.75 223.93C265.48 224.41 265.19 224.88 264.88 225.33C264.57 225.77 264.23 226.21 263.87 226.62C263.51 227.04 263.13 227.43 262.73 227.81C262.34 228.18 261.92 228.54 261.48 228.87C261.14 229.13 260.79 229.39 260.44 229.64C260.09 229.89 259.73 230.13 259.36 230.37C259 230.6 258.63 230.83 258.26 231.05C257.89 231.27 257.51 231.48 257.13 231.68C256.44 232.04 255.74 232.38 255.04 232.71C254.34 233.05 253.63 233.36 252.91 233.66C252.19 233.96 251.47 234.25 250.74 234.52C250.01 234.79 249.28 235.04 248.54 235.28C245.68 236.22 242.83 236.99 239.95 237.63C238.52 237.95 237.08 238.22 235.63 238.48C234.18 238.74 232.77 238.96 231.25 239.14C230.47 239.24 229.68 239.05 229.03 238.61C228.38 238.17 227.92 237.51 227.72 236.75C227.53 235.99 227.61 235.18 227.97 234.48C228.33 233.78 228.93 233.24 229.66 232.95L229.75 232.95C232.27 231.95 234.9 230.89 237.42 229.77C239.94 228.65 242.42 227.54 244.84 226.32C245.42 226.04 245.99 225.74 246.56 225.44C247.13 225.13 247.7 224.82 248.26 224.5C248.82 224.17 249.37 223.84 249.92 223.5C250.46 223.15 251 222.8 251.54 222.44C251.77 222.29 252 222.13 252.22 221.96C252.45 221.8 252.67 221.63 252.88 221.45C253.1 221.28 253.31 221.1 253.52 220.91C253.73 220.73 253.93 220.53 254.13 220.34C254.25 220.23 254.37 220.12 254.48 220C254.59 219.88 254.7 219.76 254.79 219.63C254.89 219.5 254.98 219.36 255.06 219.22C255.15 219.08 255.22 218.94 255.29 218.79L254.77 220.36C254.86 219.55 254.94 218.73 255 217.92C255.06 217.1 255.1 216.28 255.12 215.47C255.14 214.65 255.15 213.83 255.13 213.01C255.12 212.19 255.09 211.38 255.04 210.56C254.97 208.87 254.82 207.15 254.64 205.44C254.46 203.73 254.26 201.99 254.02 200.26C253.52 196.8 252.93 193.34 252.24 189.87C251.91 188.13 251.55 186.4 251.16 184.68C250.77 182.98 250.37 181.19 249.98 179.62L249.98 179.52C249.61 177.89 249.89 176.18 250.76 174.74C251.63 173.31 253.02 172.27 254.64 171.85C256.25 171.42 257.98 171.63 259.44 172.45C260.9 173.26 261.99 174.61 262.48 176.21L262.45 176.17Z" />
		<path id="Layer" class="shp12" d="M233.2 232.05L225.11 232.99L227.39 242.36C227.39 242.36 234.47 241.07 235.51 236.68L233.2 232.05Z" />
		<path id="Layer" class="shp12" d="M221.36 237.08L222.74 240.59C222.82 240.79 222.93 240.99 223.06 241.16C223.2 241.33 223.35 241.49 223.53 241.62C223.7 241.75 223.9 241.86 224.1 241.93C224.31 242.01 224.52 242.06 224.74 242.08L227.43 242.36L225.11 233L222.64 234C222.35 234.12 222.1 234.29 221.88 234.51C221.66 234.73 221.49 234.99 221.37 235.28C221.25 235.56 221.19 235.87 221.19 236.18C221.18 236.49 221.24 236.79 221.36 237.08Z" />
		<path id="Layer" class="shp6" d="M258.6 163.17C269 170.59 270.23 188.8 270.23 188.8L249.91 195C249.91 195 246.23 186.77 245.43 179.33C244.15 167.37 251.15 157.86 258.6 163.17Z" />
		<path id="Layer" class="shp12" d="M215.22 351.64L205.91 351.64L201.23 330.08L210.54 330.08L215.22 351.64L215.22 351.64Z" />
		<path id="Layer" class="shp10" d="M205.25 348.13L215.71 348.13C215.8 348.13 215.89 348.15 215.98 348.18C216.07 348.21 216.15 348.25 216.22 348.31C216.29 348.37 216.35 348.44 216.4 348.52C216.45 348.59 216.48 348.68 216.5 348.77L218.34 357.05C218.38 357.25 218.38 357.46 218.33 357.65C218.29 357.85 218.2 358.04 218.07 358.2C217.94 358.36 217.78 358.48 217.59 358.57C217.41 358.66 217.2 358.7 217 358.7C213.35 358.64 211.57 358.43 207 358.43C204.17 358.43 200.54 358.72 196.63 358.72C192.72 358.72 192.21 354.86 193.81 354.51C200.99 352.94 201.49 350.77 203.81 348.71C203.91 348.62 204.01 348.54 204.12 348.47C204.24 348.4 204.35 348.34 204.48 348.29C204.6 348.24 204.73 348.2 204.86 348.17C204.99 348.15 205.12 348.13 205.25 348.13Z" />
		<g id="Layer" style="opacity: 0.2">
			<path id="Layer" class="shp15" d="M210.55 330.08L201.23 330.08L203.83 342.03L212.96 341.2L210.55 330.08L210.55 330.08Z" />
		</g>
		<path id="Layer" class="shp12" d="M181.94 351.64L172.63 351.64L167.95 330.08L177.26 330.08L181.94 351.64L181.94 351.64Z" />
		<path id="Layer" class="shp10" d="M172 348.13L182.46 348.13C182.55 348.13 182.64 348.15 182.73 348.18C182.82 348.21 182.9 348.25 182.97 348.31C183.04 348.37 183.1 348.44 183.15 348.52C183.2 348.59 183.23 348.68 183.25 348.77L185.09 357.05C185.13 357.25 185.13 357.46 185.08 357.66C185.03 357.86 184.94 358.05 184.81 358.21C184.68 358.36 184.51 358.49 184.33 358.58C184.14 358.66 183.94 358.7 183.73 358.7C180.07 358.64 178.3 358.43 173.73 358.43C170.9 358.43 161.66 358.72 157.73 358.72C153.8 358.72 153.31 354.86 154.91 354.51C162.08 352.94 168.19 350.77 170.48 348.71C170.58 348.62 170.69 348.53 170.81 348.46C170.93 348.39 171.06 348.33 171.19 348.28C171.32 348.23 171.45 348.19 171.59 348.17C171.72 348.14 171.86 348.13 172 348.13L172 348.13Z" />
		<g id="Layer" style="opacity: 0.2">
			<path id="Layer" class="shp15" d="M177.26 330.08L167.95 330.08L170.54 342.03L179.68 341.2L177.26 330.08L177.26 330.08Z" />
		</g>
		<path id="Layer" class="shp10" d="M232.07 232.31C232.07 232.31 189.66 247 188.7 261.24C186.14 299.45 200.8 336.47 200.8 336.47L214.8 336.47C214.8 336.47 212.65 323.39 210.74 288.77C208.35 245.26 282.19 289.77 266.99 232.31L232.07 232.31Z" />
		<path id="Layer" class="shp6" d="M197.9 333C197.83 333 200.02 339.37 200.02 339.37L216.22 337.78L215.35 332L197.9 333Z" />
		<path id="Layer" class="shp10" d="M217.15 232.31C217.15 232.31 152.4 238.31 153.15 273.93C153.94 310.93 167.46 337.48 167.46 337.48L181.3 337.48C181.3 337.48 175.77 313.4 176.23 276.96C176.37 266.04 195.53 265.96 217.08 264.73C235.69 263.63 253.08 253.02 260.34 235.83L261.82 232.31L217.15 232.31Z" />
		<path id="Layer" class="shp6" d="M163.7 333.15C163.64 333.15 166.08 339.55 166.08 339.55L182.78 338.35L181.78 332.56L163.7 333.15Z" />
		<path id="Layer" class="shp10" d="M230.26 131.44C230.05 132.16 229.49 132.63 229.02 132.49C228.55 132.35 228.34 131.65 228.55 130.93C228.76 130.21 229.32 129.74 229.79 129.88C230.26 130.02 230.47 130.72 230.26 131.44Z" />
		<path id="Layer" class="shp13" d="M229.56 132.65C229.56 132.65 226.69 136.32 224.29 137.79C225.21 139.36 227.54 139.45 227.54 139.45L229.56 132.65Z" />
		<path id="Layer" class="shp10" d="M234 127.3C233.98 127.3 233.96 127.3 233.93 127.29C233.91 127.29 233.89 127.28 233.87 127.27C233.85 127.27 233.83 127.26 233.81 127.25C233.79 127.24 233.77 127.22 233.75 127.21C233.54 127.03 233.31 126.88 233.06 126.76C232.81 126.63 232.55 126.54 232.28 126.48C232.01 126.42 231.74 126.39 231.46 126.39C231.18 126.4 230.91 126.43 230.64 126.5C230.58 126.52 230.53 126.53 230.47 126.52C230.41 126.52 230.35 126.5 230.3 126.48C230.25 126.45 230.2 126.41 230.16 126.37C230.13 126.33 230.1 126.28 230.08 126.22C230.06 126.16 230.06 126.11 230.06 126.05C230.07 125.99 230.08 125.94 230.11 125.88C230.13 125.83 230.17 125.79 230.21 125.75C230.25 125.71 230.31 125.68 230.36 125.66C230.7 125.57 231.04 125.52 231.39 125.51C231.74 125.5 232.09 125.53 232.43 125.61C232.77 125.68 233.1 125.8 233.41 125.95C233.73 126.1 234.02 126.29 234.29 126.51C234.34 126.55 234.37 126.59 234.4 126.64C234.43 126.69 234.45 126.75 234.46 126.8C234.47 126.86 234.46 126.92 234.45 126.98C234.43 127.03 234.41 127.08 234.37 127.13C234.35 127.16 234.32 127.18 234.3 127.21C234.27 127.23 234.24 127.25 234.21 127.26C234.17 127.28 234.14 127.29 234.11 127.29C234.07 127.3 234.04 127.3 234 127.3Z" />
		<path id="Layer" class="shp12" d="M247.48 139.61C246.15 146.43 244.81 158.91 249.58 163.46C249.58 163.46 247.72 170.37 235.06 170.37C221.14 170.37 228.41 163.46 228.41 163.46C236 161.64 235.81 156.01 234.48 150.71L247.48 139.61Z" />
		<path id="Layer" class="shp6" d="M249.17 160.09C247.36 160.04 245.56 160.02 243.75 160.03C241.95 160.04 240.14 160.09 238.34 160.18C236.53 160.26 234.73 160.38 232.93 160.53C231.13 160.68 229.33 160.87 227.54 161.09C225.48 161.35 223.48 161.98 221.64 162.94C219.8 163.9 218.15 165.17 216.75 166.71C215.36 168.25 214.25 170.02 213.47 171.95C212.7 173.88 212.27 175.92 212.21 178C211.95 188.17 212.81 205.06 217.15 232.34C232.27 236.05 258.21 238.76 266.96 232.34C267.24 225.96 263.17 206.85 266.13 179.72C266.41 177.3 266.18 174.85 265.46 172.52C264.74 170.19 263.55 168.03 261.95 166.19C260.36 164.34 258.4 162.85 256.2 161.8C254 160.75 251.61 160.17 249.17 160.09L249.17 160.09Z" />
		<path id="Layer" class="shp12" d="M225.84 179.27C225.35 183.11 224.72 186.85 224.1 190.64C223.48 194.43 222.76 198.18 221.98 201.94C221.2 205.7 220.36 209.47 219.41 213.25C219.17 214.23 218.92 215.21 218.66 216.18C218.39 217.16 218.11 218.13 217.82 219.09C217.52 220.06 217.21 221.02 216.88 221.97C216.56 222.93 216.22 223.88 215.86 224.82L215.62 225.43L215.44 225.72C215.03 226.34 214.59 226.95 214.13 227.53C213.66 228.12 213.16 228.67 212.64 229.21C212.12 229.75 211.58 230.25 211.01 230.74C210.44 231.22 209.84 231.67 209.23 232.1C208.7 232.47 208.17 232.83 207.62 233.18C207.08 233.53 206.53 233.87 205.97 234.19C205.41 234.51 204.84 234.82 204.27 235.12C203.7 235.42 203.12 235.7 202.53 235.97C201.97 236.23 201.41 236.48 200.85 236.72C200.28 236.96 199.71 237.19 199.14 237.41C198.57 237.63 197.99 237.85 197.42 238.05C196.84 238.26 196.25 238.45 195.67 238.64C195.09 238.83 194.51 239.01 193.92 239.18C193.34 239.35 192.75 239.51 192.16 239.66C191.57 239.81 190.98 239.95 190.38 240.08C189.79 240.21 189.19 240.33 188.59 240.44L186.59 234.36C188.44 233.36 190.43 232.21 192.28 231.07C194.13 229.93 195.98 228.76 197.7 227.53C198.11 227.24 198.52 226.94 198.92 226.64C199.33 226.34 199.72 226.03 200.12 225.71C200.51 225.39 200.89 225.06 201.27 224.73C201.65 224.4 202.02 224.06 202.39 223.71C202.69 223.44 202.97 223.16 203.24 222.86C203.51 222.57 203.77 222.26 204.02 221.94C204.26 221.62 204.5 221.3 204.71 220.96C204.93 220.62 205.13 220.27 205.32 219.92L204.9 220.81C205.15 219.96 205.39 219.11 205.62 218.26C205.85 217.4 206.07 216.55 206.27 215.69C206.48 214.83 206.68 213.96 206.87 213.1C207.05 212.24 207.23 211.37 207.39 210.5C208.1 206.89 208.76 203.24 209.39 199.56L211.24 188.49L213 177.42L225.84 179.27Z" />
		<path id="Layer" class="shp12" d="M193.54 231.45L182.69 234.66L188.69 243.4C188.69 243.4 191.96 243.21 194.51 236.92L193.54 231.45Z" />
		<path id="Layer" class="shp12" d="M179.23 241.41L180.29 243.49C180.49 243.87 180.76 244.21 181.08 244.5C181.4 244.78 181.78 245 182.18 245.15C182.59 245.3 183.02 245.37 183.45 245.36C183.88 245.35 184.3 245.26 184.7 245.09L188.7 243.4L182.7 234.66L179.91 237.36C179.64 237.61 179.42 237.91 179.25 238.23C179.08 238.56 178.96 238.91 178.9 239.27C178.84 239.63 178.84 240 178.89 240.37C178.95 240.73 179.06 241.08 179.23 241.41L179.23 241.41Z" />
		<path id="Layer" class="shp6" d="M231.89 167.55C236.16 175.36 228.89 195.03 228.89 195.03L207.2 189.68C207.2 189.68 207.38 184.18 212.14 173.68C217.61 161.71 227.25 159 231.89 167.55Z" />
		<path id="Layer" class="shp12" d="M254.73 137C251.56 145.68 250.15 150.93 244.34 154.14C235.59 158.97 225.88 151.69 226.34 142.23C226.79 133.72 231.9 120.95 241.6 120C243.74 119.77 245.91 120.09 247.89 120.94C249.87 121.78 251.61 123.12 252.92 124.83C254.24 126.53 255.1 128.55 255.41 130.68C255.73 132.81 255.49 134.99 254.73 137L254.73 137Z" />
		<path id="Layer" class="shp10" d="M234.15 138.49C231.01 138.81 230.83 136.77 230.83 136.77C230.83 136.77 229.6 130.11 234.24 126.01C231.82 124.66 229.31 122.01 230.7 118.06C232.09 114.11 237.48 112.06 242.15 112.9C241.15 114.9 245.96 117.08 251.8 116.63C257.64 116.18 261.99 120.71 258.49 123.63C264.15 123.63 266.97 133.27 261.26 137.89C250.46 146.62 250.26 153.17 245.26 154.16C240.26 155.15 229 149.9 234.15 138.49Z" />
		<path id="Layer" class="shp12" d="M235 138.31C234.84 138.77 234.64 139.21 234.4 139.63C234.17 140.05 233.9 140.46 233.6 140.84C233.3 141.22 232.97 141.57 232.61 141.9C232.26 142.23 231.87 142.52 231.47 142.79C229.55 143.9 229.04 141.79 229.4 138.94C229.73 136.3 231.72 132.44 233.56 132.82C235.4 133.2 236 135.85 235 138.31Z" />
		<path id="Layer" class="shp6" d="M276.7 202.1C279.82 187.73 284.12 162.35 254.19 160.02L249.73 159.68C249.74 159.58 249.74 159.48 249.74 159.38C249.73 159.28 249.73 159.18 249.72 159.08C249.71 158.98 249.7 158.88 249.68 158.78C249.66 158.68 249.64 158.58 249.62 158.48C251.18 158.48 254.03 158.3 253.4 156.41C253.03 155.32 252.57 154.97 251.94 155.07C252.03 154.94 252.1 154.8 252.14 154.64C252.17 154.49 252.18 154.33 252.15 154.17C252.12 154.02 252.06 153.87 251.98 153.74C251.89 153.6 251.78 153.49 251.65 153.4C249.65 151.77 249.22 153.57 247.99 156.3C246.57 156.35 245.16 156.45 243.75 156.6C242.34 156.75 240.94 156.95 239.55 157.2C238.15 157.45 236.77 157.75 235.4 158.1C234.02 158.45 232.66 158.85 231.32 159.3L231.32 159.3C220.73 160.05 211.63 163.3 207.5 172.79C200.5 188.87 207.93 220.79 188.69 226.85C172.75 231.85 170.23 239.35 164.78 245.97C164.37 246.46 164.09 247.04 163.95 247.66C163.82 248.28 163.84 248.92 164 249.54C164.17 250.15 164.49 250.71 164.92 251.18C165.35 251.64 165.89 252 166.49 252.21C177.49 256.04 191.21 257.47 202.41 257.47L275.63 257.47C288.32 257.47 273.59 216.46 276.7 202.1Z" />
		<path id="Layer" class="shp11" d="M276.7 202.1C279.82 187.73 284.12 162.35 254.19 160.02L249.73 159.68C249.74 159.58 249.74 159.48 249.74 159.38C249.73 159.28 249.73 159.18 249.72 159.08C249.71 158.98 249.7 158.88 249.68 158.78C249.66 158.68 249.64 158.58 249.62 158.48C251.18 158.48 254.03 158.3 253.4 156.41C253.03 155.32 252.57 154.97 251.94 155.07C252.03 154.94 252.1 154.8 252.14 154.64C252.17 154.49 252.18 154.33 252.15 154.17C252.12 154.02 252.06 153.87 251.98 153.74C251.89 153.6 251.78 153.49 251.65 153.4C249.65 151.77 249.22 153.57 247.99 156.3C246.57 156.35 245.16 156.45 243.75 156.6C242.34 156.75 240.94 156.95 239.55 157.2C238.15 157.45 236.77 157.75 235.4 158.1C234.02 158.45 232.66 158.85 231.32 159.3L231.32 159.3C220.73 160.05 211.63 163.3 207.5 172.79C200.5 188.87 207.93 220.79 188.69 226.85C172.75 231.85 170.23 239.35 164.78 245.97C164.37 246.46 164.09 247.04 163.95 247.66C163.82 248.28 163.84 248.92 164 249.54C164.17 250.15 164.49 250.71 164.92 251.18C165.35 251.64 165.89 252 166.49 252.21C177.49 256.04 191.21 257.47 202.41 257.47L275.63 257.47C288.32 257.47 273.59 216.46 276.7 202.1Z" />
		<path id="Layer" class="shp16" d="M249.62 158.47C246.68 158.2 237.75 159.41 237.75 159.41C237.75 159.41 246.49 159.47 249.75 159.68C249.75 159.58 249.75 159.48 249.75 159.37C249.75 159.27 249.74 159.17 249.73 159.07C249.72 158.97 249.7 158.87 249.69 158.77C249.67 158.67 249.65 158.57 249.62 158.47L249.62 158.47Z" />
		<path id="Layer" class="shp6" d="M172.06 261.04C172.06 257.71 174.76 255.01 178.09 255.01L282.28 255.01C285.61 255.01 288.31 257.71 288.31 261.04L288.31 267.07C288.31 270.4 285.61 273.1 282.28 273.1L178.09 273.1C174.76 273.1 172.06 270.4 172.06 267.07L172.06 261.04Z" />
		<path id="Layer" class="shp17" d="M172.06 261.04C172.06 257.71 174.76 255.01 178.09 255.01L282.28 255.01C285.61 255.01 288.31 257.71 288.31 261.04L288.31 267.07C288.31 270.4 285.61 273.1 282.28 273.1L178.09 273.1C174.76 273.1 172.06 270.4 172.06 267.07L172.06 261.04Z" />
		<path id="Layer" class="shp6" d="M288.12 163.74L244.35 163.74C243.14 163.78 241.94 164.02 240.8 164.45C239.67 164.88 238.61 165.5 237.67 166.27C236.73 167.04 235.93 167.96 235.29 168.99C234.65 170.03 234.18 171.16 233.91 172.34C232.46 179.65 231.25 187.01 230.29 194.4C229.32 201.79 228.6 209.21 228.12 216.65C227.64 224.09 227.4 231.54 227.41 239C227.41 246.45 227.66 253.9 228.16 261.34C228.27 262.5 228.59 263.63 229.1 264.67C229.62 265.71 230.32 266.65 231.18 267.44C232.03 268.22 233.02 268.85 234.11 269.28C235.19 269.7 236.34 269.93 237.5 269.94L281.26 269.94C282.37 269.96 283.46 269.74 284.48 269.31C285.49 268.87 286.41 268.23 287.16 267.42C287.91 266.6 288.48 265.64 288.83 264.6C289.19 263.55 289.31 262.44 289.21 261.34C288.72 253.9 288.46 246.45 288.46 239C288.45 231.54 288.69 224.09 289.16 216.65C289.64 209.21 290.37 201.79 291.33 194.4C292.3 187.01 293.5 179.65 294.95 172.34C295.89 167.58 292.9 163.74 288.12 163.74Z" />
		<path id="Layer" class="shp17" d="M288.12 163.74L244.35 163.74C243.14 163.78 241.94 164.02 240.8 164.45C239.67 164.88 238.61 165.5 237.67 166.27C236.73 167.04 235.93 167.96 235.29 168.99C234.65 170.03 234.18 171.16 233.91 172.34C232.46 179.65 231.25 187.01 230.29 194.4C229.32 201.79 228.6 209.21 228.12 216.65C227.64 224.09 227.4 231.54 227.41 239C227.41 246.45 227.66 253.9 228.16 261.34C228.27 262.5 228.59 263.63 229.1 264.67C229.62 265.71 230.32 266.65 231.18 267.44C232.03 268.22 233.02 268.85 234.11 269.28C235.19 269.7 236.34 269.93 237.5 269.94L281.26 269.94C282.37 269.96 283.46 269.74 284.48 269.31C285.49 268.87 286.41 268.23 287.16 267.42C287.91 266.6 288.48 265.64 288.83 264.6C289.19 263.55 289.31 262.44 289.21 261.34C288.72 253.9 288.46 246.45 288.46 239C288.45 231.54 288.69 224.09 289.16 216.65C289.64 209.21 290.37 201.79 291.33 194.4C292.3 187.01 293.5 179.65 294.95 172.34C295.89 167.58 292.9 163.74 288.12 163.74Z" />
		<path id="Layer" class="shp6" d="M294.19 167.35L253.41 167.35C252.28 167.39 251.16 167.61 250.1 168.01C249.05 168.41 248.06 168.98 247.19 169.7C246.31 170.42 245.56 171.27 244.96 172.24C244.36 173.2 243.93 174.25 243.67 175.35C242.32 182.17 241.19 189.03 240.29 195.92C239.39 202.82 238.72 209.74 238.27 216.67C237.82 223.61 237.6 230.56 237.61 237.51C237.62 244.46 237.86 251.41 238.32 258.35C238.42 259.43 238.72 260.48 239.2 261.45C239.68 262.42 240.33 263.29 241.13 264.03C241.93 264.76 242.85 265.34 243.86 265.74C244.87 266.13 245.94 266.34 247.02 266.35L287.8 266.35C288.83 266.37 289.85 266.16 290.79 265.76C291.74 265.36 292.59 264.76 293.29 264C293.99 263.25 294.52 262.35 294.85 261.38C295.18 260.41 295.3 259.37 295.21 258.35C294.75 251.41 294.51 244.46 294.51 237.51C294.5 230.56 294.72 223.61 295.17 216.67C295.61 209.74 296.29 202.82 297.19 195.92C298.09 189.03 299.21 182.17 300.56 175.35C301.43 170.94 298.64 167.35 294.19 167.35Z" />
		<path id="Layer" class="shp6" d="M235.38 284.39L224.77 284.39C224.41 284.39 224.06 284.35 223.71 284.27C223.36 284.18 223.03 284.06 222.71 283.9C222.39 283.73 222.09 283.54 221.82 283.3C221.55 283.07 221.31 282.81 221.1 282.52L214.28 273.09L245.87 273.09L239.05 282.52C238.84 282.81 238.6 283.07 238.33 283.3C238.06 283.54 237.76 283.73 237.44 283.9C237.12 284.06 236.79 284.18 236.44 284.27C236.09 284.35 235.74 284.39 235.38 284.39L235.38 284.39Z" />
		<path id="Layer" class="shp18" d="M214.28 273.1L217.11 277L244.46 275.05L245.87 273.1L214.28 273.1L214.28 273.1Z" />
		<path id="Layer" class="shp6" d="M222.45 351.04L237.69 351.04L245.87 359.93L214.28 359.93L222.45 351.04L222.45 351.04Z" />
		<path id="Layer" class="shp10" d="M225.77 284.39L234.38 284.39L234.38 351.03L225.77 351.03L225.77 284.39Z" />
		<path id="Layer" class="shp19" d="M225.77 284.39L234.38 284.39L234.38 351.03L225.77 351.03L225.77 284.39Z" />
	</g>
	<g id="freepik--character-2--inject-11">
		<path id="Layer" class="shp20" d="M318.34 106.62C318.14 108.13 317.93 109.44 317.66 110.82C317.39 112.2 317.12 113.53 316.83 114.87C316.23 117.56 315.49 120.22 314.72 122.87C314.33 124.2 313.92 125.52 313.48 126.84C313.04 128.15 312.57 129.45 312.08 130.75C311.59 132.04 311.07 133.33 310.53 134.6C309.98 135.88 309.41 137.14 308.82 138.39C308.5 139.04 308.3 139.54 307.82 140.47C307.72 140.65 307.61 140.82 307.5 141C307.39 141.17 307.28 141.35 307.17 141.52C307.06 141.69 306.94 141.86 306.83 142.03C306.71 142.2 306.59 142.36 306.47 142.53C305.56 143.76 304.63 144.85 303.69 145.9C301.81 148 299.85 149.9 297.88 151.79C296.89 152.71 295.89 153.63 294.88 154.52C293.87 155.42 292.85 156.31 291.82 157.18C290.78 158.05 289.74 158.91 288.68 159.76C287.62 160.6 286.56 161.43 285.48 162.25C285.01 162.62 284.41 162.8 283.81 162.76C283.21 162.71 282.65 162.44 282.24 162.01C281.83 161.57 281.6 160.99 281.59 160.39C281.59 159.79 281.81 159.21 282.21 158.76L282.21 158.76C285.67 154.76 289.21 150.76 292.52 146.76C294.21 144.76 295.84 142.76 297.35 140.76C298.1 139.76 298.81 138.76 299.4 137.76C299.47 137.65 299.54 137.54 299.6 137.43C299.67 137.32 299.73 137.21 299.8 137.1C299.86 136.99 299.92 136.88 299.98 136.76C300.04 136.65 300.09 136.54 300.15 136.42C300.26 136.17 300.55 135.42 300.77 134.88C301.77 132.52 302.55 130.1 303.37 127.68C304.19 125.26 304.89 122.79 305.55 120.3C306.21 117.81 306.79 115.3 307.35 112.81C307.62 111.55 307.89 110.3 308.13 109.04C308.37 107.78 308.61 106.49 308.79 105.36L308.79 105.25C309.02 104.02 309.71 102.93 310.73 102.2C311.75 101.47 313.01 101.17 314.24 101.35C315.48 101.53 316.6 102.19 317.36 103.18C318.13 104.17 318.48 105.42 318.34 106.66L318.34 106.62Z" />
		<path id="Layer" class="shp6" d="M316.12 98.69C315.19 99.01 314.29 99.39 313.42 99.85C312.56 100.31 311.73 100.83 310.94 101.42C310.16 102 309.42 102.65 308.74 103.35C308.05 104.06 307.43 104.81 306.86 105.61C306.29 106.41 312.91 115.28 313.93 121.61C319 115.79 324 103.5 316.12 98.69Z" />
		<path id="Layer" class="shp20" d="M270.31 160.77C270.25 160.2 270.31 159.63 270.48 159.09C270.64 158.55 270.91 158.04 271.28 157.6C271.64 157.17 272.09 156.81 272.59 156.54C273.09 156.28 273.64 156.12 274.21 156.07L277.79 155.77C277.79 155.77 284.55 154.89 286.85 160.54L286.26 161.67C286.02 162.12 285.74 162.55 285.41 162.94C285.08 163.33 284.71 163.68 284.3 163.98C283.89 164.29 283.45 164.55 282.98 164.76C282.52 164.97 282.03 165.12 281.53 165.22L276.22 166.28C275.98 166.33 275.74 166.36 275.5 166.38C275.26 166.4 275.02 166.41 274.77 166.41C274.53 166.4 274.29 166.39 274.05 166.36C273.81 166.33 273.57 166.29 273.33 166.23L273.33 166.23C272.96 166.14 272.61 166 272.29 165.81C271.97 165.62 271.68 165.37 271.43 165.09C271.18 164.81 270.97 164.49 270.82 164.15C270.67 163.8 270.58 163.43 270.54 163.06L270.31 160.77Z" />
		<path id="Layer" class="shp6" d="M309.51 110.68C309.86 118.84 311.27 132.6 315.04 155.83L353.39 155.83C352.82 141.97 352.17 132.31 358.25 108.24C359.74 102.31 355.55 97.7 348.72 96.78C347.19 96.57 345.57 96.49 343.91 96.41C342.46 96.31 341.01 96.23 339.56 96.18C338.11 96.12 336.65 96.1 335.2 96.1C333.75 96.1 332.29 96.12 330.84 96.18C329.39 96.23 327.94 96.31 326.49 96.41C324.61 96.58 322.67 96.82 320.81 97.08C319.21 97.31 317.66 97.83 316.24 98.62C314.83 99.41 313.57 100.45 312.53 101.7C311.5 102.94 310.7 104.37 310.18 105.91C309.67 107.44 309.44 109.06 309.51 110.68Z" />
		<path id="Layer" class="shp10" d="M323.8 95.5C319.91 107.62 323.65 115.34 323.65 115.34C327.33 116.45 335.53 116.75 339.96 115.83C339.96 115.83 343.15 98.71 345.63 94.78C345.87 94.82 346.11 94.86 346.35 94.91C346.59 94.96 346.83 95.01 347.07 95.07C347.3 95.13 347.54 95.2 347.77 95.27C348.01 95.34 348.24 95.42 348.47 95.5C347.92 97.27 347.43 99.05 346.97 100.85C346.52 102.65 346.12 104.45 345.77 106.27C345.41 108.09 345.1 109.92 344.85 111.75C344.59 113.58 344.38 115.42 344.22 117.27C345.17 117.62 346.09 118.04 346.97 118.53C347.86 119.02 348.7 119.57 349.51 120.19C350.31 120.8 351.06 121.48 351.76 122.21C352.46 122.94 353.1 123.72 353.68 124.55C354.05 125.11 354.33 125.73 354.52 126.38C354.71 127.02 354.81 127.69 354.81 128.37C354.81 129.04 354.71 129.71 354.52 130.35C354.33 131 354.05 131.62 353.68 132.18C351 136.35 346.94 144.73 350.43 153.59L316.74 153.59C316.74 153.59 314.5 139.95 310.82 130.72C310.58 130.12 310.41 129.5 310.33 128.85C310.25 128.21 310.25 127.57 310.34 126.93C310.43 126.29 310.6 125.66 310.85 125.07C311.1 124.47 311.42 123.91 311.82 123.4C312.37 122.74 312.95 122.12 313.57 121.53C314.19 120.93 314.83 120.37 315.51 119.85C316.19 119.32 316.89 118.84 317.62 118.39C318.35 117.94 319.1 117.53 319.87 117.16C320.64 116.79 316.03 105.93 320.62 96.42C320.88 96.32 321.14 96.23 321.4 96.14C321.66 96.06 321.93 95.98 322.19 95.9C322.46 95.82 322.72 95.75 322.99 95.68C323.26 95.62 323.53 95.56 323.8 95.5Z" />
		<path id="Layer" class="shp6" d="M351.6 70.15C355.13 70.34 360.16 73.21 356.6 76.51C353.04 79.81 348.36 73.61 351.6 70.15Z" />
		<path id="Layer" class="shp10" d="M330.05 49.42C322.32 50.58 323.52 65.42 313.54 67.06C316.95 76.22 324.98 74.06 324.98 74.06C324.98 74.06 323.27 81.55 335.05 86.06C346.83 90.57 360.76 82.81 354.05 72.66C361.23 64.76 357.52 53 348.5 48.51C341.7 45.15 329.25 45 330.05 49.42Z" />
		<path id="Layer" class="shp20" d="M342.18 76.81C341.08 82.41 339.99 92.68 343.91 96.41C342.73 96.76 341.56 97.12 340.39 97.5C339.22 97.89 338.06 98.28 336.9 98.7C335.75 99.12 334.6 99.55 333.46 100C332.31 100.46 331.18 100.92 330.05 101.41C329.56 101.19 329.1 100.91 328.68 100.57C328.26 100.23 327.89 99.84 327.58 99.4C327.27 98.96 327.02 98.48 326.83 97.98C326.65 97.47 326.53 96.95 326.49 96.41C332.74 94.91 332.58 90.28 331.49 85.92L342.18 76.81Z" />
		<path id="Layer" class="shp2" d="M330.05 101.42C330.05 101.42 335.2 104.03 337.72 108.24C346.72 104.39 348.18 99.16 346.99 96.24C346.67 96.09 346.35 95.94 346.03 95.78C345.71 95.62 345.4 95.46 345.09 95.29C344.77 95.13 344.46 94.96 344.16 94.78C343.85 94.61 343.54 94.42 343.24 94.24C342.94 94.06 335.53 98.84 330.05 101.42Z" />
		<path id="Layer" class="shp2" d="M330.05 101.42C329.29 101.75 328.55 102.13 327.84 102.57C327.13 103 326.45 103.48 325.81 104C325.16 104.52 324.55 105.09 323.99 105.69C323.42 106.3 322.89 106.94 322.41 107.62C319.41 106.4 319.15 99.09 321.41 96.81C321.83 96.65 322.27 96.51 322.7 96.39C323.14 96.27 323.58 96.16 324.03 96.08C324.47 96 324.92 95.93 325.37 95.89C325.82 95.84 326.28 95.82 326.73 95.81C327.18 95.8 327.73 99.55 330.05 101.42Z" />
		<path id="Layer" class="shp7" d="M337.82 80.53L331.5 85.93C331.56 86.18 331.62 86.43 331.68 86.69C331.73 86.94 331.78 87.2 331.82 87.45C331.86 87.71 331.9 87.97 331.93 88.22C331.96 88.48 331.98 88.74 332 89C334.39 88.65 337.67 86 337.92 83.54C337.96 83.29 337.98 83.04 338 82.79C338.01 82.54 338.02 82.28 338.01 82.03C338 81.78 337.98 81.53 337.95 81.28C337.92 81.03 337.87 80.78 337.82 80.53Z" />
		<path id="Layer" class="shp20" d="M348.09 66.53C345.91 75.64 345.17 79.53 339.77 83.46C331.65 89.36 321.16 84.71 320.63 75.13C320.16 66.51 323.81 53.06 333.3 50.96C342.79 48.86 350.28 57.42 348.09 66.53Z" />
		<path id="Layer" class="shp10" d="M330.05 50.64C334.6 57.64 343.64 61.58 343.64 61.58C341.54 63.34 338.37 73.03 344.47 74.17C354.17 71.96 353.03 58.91 351 55.49C348.97 52.07 338.14 47.35 330.05 50.64Z" />
		<path id="Layer" class="shp20" d="M315 155.83C315 155.83 318.24 226.93 318.86 255.73C319.51 285.68 319.79 355.63 319.79 355.63L327.35 355.63C327.35 355.63 339.41 297.5 335.84 255.73C341.24 223.66 344.89 155.83 344.89 155.83L315 155.83Z" />
		<path id="Layer" class="shp20" d="M325.07 155.83C325.07 155.83 352.39 230.29 363.24 258.14C374.64 287.38 393.35 353.46 393.68 355.63L400.22 355.63C400.22 355.63 392.73 279.29 379.13 253.32C375.02 220.8 353.39 155.83 353.39 155.83L325.07 155.83Z" />
		<path id="Layer" class="shp10" d="M319.89 354.46L327.99 354.58C328.06 354.58 328.13 354.59 328.2 354.62C328.27 354.64 328.33 354.68 328.38 354.73C328.43 354.78 328.48 354.83 328.51 354.9C328.54 354.96 328.56 355.03 328.57 355.1L329.27 361.73C329.28 361.9 329.26 362.07 329.21 362.23C329.15 362.39 329.06 362.53 328.95 362.65C328.83 362.78 328.7 362.88 328.54 362.94C328.39 363.01 328.22 363.04 328.05 363.04C325.14 362.94 320.93 362.7 317.26 362.64C312.96 362.58 313.38 362.75 308.34 362.64C305.34 362.64 304.8 359.5 306.11 359.24C312.06 358.06 312.66 358 318.04 354.98C318.18 354.9 318.32 354.82 318.47 354.76C318.62 354.7 318.77 354.64 318.93 354.6C319.09 354.55 319.25 354.52 319.41 354.5C319.57 354.47 319.73 354.46 319.89 354.46Z" />
		<path id="Layer" class="shp10" d="M392.89 354.46L400.99 354.58C401.06 354.58 401.13 354.59 401.2 354.62C401.27 354.64 401.33 354.68 401.38 354.73C401.44 354.77 401.48 354.83 401.52 354.9C401.55 354.96 401.57 355.03 401.58 355.1L402.53 361.73C402.55 361.9 402.53 362.06 402.48 362.22C402.43 362.38 402.35 362.53 402.24 362.65C402.13 362.78 401.99 362.88 401.84 362.94C401.68 363.01 401.52 363.04 401.35 363.04C398.43 362.94 397.51 362.7 393.83 362.64C389.53 362.58 391.52 362.75 386.48 362.64C383.43 362.64 382.83 359.51 384.13 359.24C388.23 358.38 389.25 356.73 391.05 354.98C391.18 354.88 391.32 354.79 391.46 354.72C391.61 354.64 391.76 354.58 391.92 354.54C392.08 354.5 392.24 354.47 392.4 354.45C392.56 354.44 392.73 354.44 392.89 354.46Z" />
		<path id="Layer" class="shp10" d="M394.44 355.24C393.15 355.24 392.44 355.24 392.13 354.65C391.82 354.06 390.64 352.36 390.72 351.72C390.8 351.08 396.03 350.56 396.55 351.59C397.07 352.62 397.06 355.16 394.44 355.24Z" />
		<path id="Layer" class="shp10" d="M319.61 355.24C318.8 355.24 318.37 355.24 318.18 354.65C318.08 354.42 317.99 354.18 317.91 353.94C317.82 353.7 317.74 353.46 317.68 353.21C317.61 352.97 317.55 352.72 317.49 352.47C317.44 352.22 317.4 351.97 317.36 351.72C317.42 351.07 320.7 350.56 321 351.59C321.3 352.62 321.24 355.16 319.61 355.24Z" />
		<path id="Layer" class="shp7" d="M353.4 155.82L315.05 155.82C315.05 155.82 318.28 226.93 318.9 255.73C318.98 259.36 319.06 263.58 319.12 268.18C322.21 265 328.55 258.67 336.5 251.85C338.62 237.85 340.44 218.76 341.85 201.26C346.36 213.44 351.15 226.32 355.37 237.5C356.83 236.51 358.33 235.56 359.85 234.66C361.37 233.76 362.92 232.91 364.49 232.1C366.06 231.3 367.66 230.55 369.28 229.84C370.91 229.14 372.55 228.48 374.21 227.88C366.47 195.11 353.4 155.82 353.4 155.82Z" />
		<path id="Layer" class="shp10" d="M355.17 152.52L355.08 155.83C355.08 155.83 370.65 188.45 374.66 222.98C348.47 231.48 317.1 270.31 317.1 270.31C303.77 253.23 315.18 173.47 314.3 156.4L313.3 152.52L355.17 152.52Z" />
		<path id="Layer" class="shp10" d="M335.94 66.63C335.81 67.38 335.3 67.92 334.81 67.83C334.32 67.74 334.03 67.06 334.17 66.31C334.31 65.56 334.8 65.03 335.29 65.11C335.78 65.19 336.07 65.88 335.94 66.63Z" />
		<path id="Layer" class="shp10" d="M326.69 65.13C326.56 65.88 326.06 66.41 325.57 66.33C325.08 66.25 324.79 65.56 324.92 64.81C325.05 64.06 325.56 63.52 326.05 63.61C326.54 63.7 326.83 64.38 326.69 65.13Z" />
		<path id="Layer" class="shp10" d="M326.26 63.69L324.55 62.85C324.55 62.85 325.22 64.42 326.26 63.69Z" />
		<path id="Layer" class="shp21" d="M329.05 66.81C328.81 67.21 328.55 67.6 328.28 67.97C328.01 68.35 327.73 68.72 327.44 69.08C327.14 69.44 326.84 69.8 326.52 70.13C326.2 70.47 325.87 70.8 325.53 71.12C325.69 71.29 325.88 71.45 326.08 71.58C326.27 71.71 326.49 71.82 326.71 71.91C326.93 71.99 327.16 72.05 327.4 72.09C327.63 72.13 327.87 72.14 328.11 72.12L329.05 66.81Z" />
		<path id="Layer" class="shp10" d="M331.93 75.64C331.82 75.64 331.72 75.64 331.61 75.63C331.5 75.63 331.4 75.62 331.29 75.61C331.19 75.6 331.08 75.59 330.98 75.57C330.87 75.56 330.76 75.54 330.66 75.52C330.63 75.52 330.6 75.5 330.58 75.49C330.55 75.47 330.53 75.45 330.51 75.43C330.49 75.4 330.48 75.38 330.47 75.35C330.47 75.32 330.47 75.29 330.47 75.26C330.48 75.23 330.49 75.2 330.5 75.18C330.52 75.16 330.54 75.13 330.56 75.12C330.59 75.1 330.62 75.09 330.64 75.08C330.67 75.08 330.7 75.08 330.73 75.08C331.19 75.17 331.67 75.21 332.14 75.2C332.61 75.18 333.08 75.11 333.54 74.98C333.99 74.86 334.43 74.68 334.84 74.45C335.26 74.22 335.64 73.94 335.99 73.62C336.01 73.6 336.03 73.58 336.06 73.57C336.09 73.56 336.12 73.55 336.14 73.55C336.17 73.55 336.2 73.56 336.23 73.57C336.26 73.58 336.28 73.6 336.3 73.62C336.32 73.64 336.34 73.66 336.35 73.69C336.36 73.72 336.36 73.75 336.36 73.77C336.36 73.8 336.36 73.83 336.35 73.86C336.34 73.89 336.32 73.91 336.3 73.93C336.01 74.21 335.69 74.45 335.35 74.67C335.01 74.88 334.65 75.06 334.28 75.21C333.91 75.35 333.52 75.46 333.13 75.54C332.73 75.61 332.33 75.64 331.93 75.64Z" />
		<path id="Layer" class="shp20" d="M349.94 76.4C349.66 76.78 349.33 77.12 348.98 77.43C348.62 77.73 348.23 78 347.82 78.23C347.41 78.46 346.97 78.64 346.52 78.77C346.07 78.91 345.61 78.99 345.14 79.03C342.75 79.13 342.21 76.42 343.42 74.03C344.51 71.92 347.07 69.32 349.2 70.33C351.33 71.34 351.48 74.44 349.94 76.4Z" />
		<path id="Layer" class="shp10" d="M339 63.13C338.97 63.12 338.94 63.11 338.92 63.09C338.89 63.08 338.87 63.06 338.84 63.04C338.82 63.02 338.8 63 338.78 62.97C338.76 62.95 338.74 62.93 338.73 62.9C338.61 62.65 338.47 62.41 338.29 62.19C338.12 61.97 337.92 61.77 337.7 61.6C337.48 61.42 337.24 61.28 336.99 61.16C336.73 61.04 336.46 60.95 336.19 60.9C336.06 60.9 335.94 60.84 335.86 60.75C335.77 60.65 335.73 60.53 335.75 60.4C335.76 60.27 335.83 60.16 335.93 60.08C336.04 60.01 336.17 59.98 336.29 60.01C336.64 60.07 336.98 60.17 337.3 60.32C337.63 60.46 337.93 60.64 338.21 60.85C338.49 61.07 338.75 61.32 338.97 61.59C339.19 61.87 339.38 62.17 339.53 62.49C339.56 62.54 339.57 62.6 339.58 62.66C339.58 62.72 339.57 62.78 339.55 62.83C339.53 62.89 339.51 62.94 339.47 62.98C339.43 63.03 339.38 63.06 339.33 63.09C339.3 63.1 339.28 63.11 339.25 63.12C339.22 63.13 339.2 63.14 339.17 63.14C339.14 63.14 339.11 63.14 339.08 63.14C339.06 63.14 339.03 63.14 339 63.13Z" />
		<path id="Layer" class="shp10" d="M323.23 59.47C323.2 59.47 323.17 59.46 323.15 59.45C323.12 59.44 323.09 59.43 323.07 59.42C323.04 59.4 323.02 59.39 322.99 59.37C322.97 59.35 322.95 59.33 322.93 59.31C322.89 59.26 322.87 59.21 322.85 59.15C322.84 59.1 322.83 59.04 322.84 58.98C322.85 58.92 322.86 58.87 322.89 58.82C322.92 58.76 322.96 58.72 323 58.68C323.27 58.45 323.57 58.25 323.89 58.09C324.2 57.93 324.54 57.81 324.89 57.73C325.23 57.65 325.59 57.61 325.94 57.61C326.3 57.62 326.65 57.66 327 57.75C327.11 57.79 327.21 57.87 327.26 57.98C327.32 58.08 327.32 58.21 327.29 58.32C327.25 58.43 327.17 58.53 327.06 58.58C326.96 58.64 326.83 58.64 326.72 58.61C326.45 58.54 326.17 58.51 325.89 58.51C325.61 58.51 325.33 58.54 325.06 58.61C324.78 58.68 324.52 58.78 324.27 58.91C324.02 59.04 323.79 59.19 323.58 59.38C323.56 59.4 323.53 59.42 323.5 59.43C323.48 59.45 323.45 59.46 323.42 59.47C323.39 59.47 323.35 59.48 323.32 59.48C323.29 59.48 323.26 59.48 323.23 59.47Z" />
		<path id="Layer" class="shp10" d="M335.5 65.19L333.79 64.35C333.79 64.35 334.47 65.92 335.5 65.19Z" />
		<path id="Layer" class="shp20" d="M358.07 102.87C358.26 103.34 358.55 104.04 358.82 104.63C359.09 105.22 359.38 105.87 359.68 106.49C360.27 107.73 360.91 108.96 361.58 110.16C361.91 110.76 362.24 111.36 362.59 111.96C362.93 112.55 363.29 113.14 363.65 113.73C364.01 114.31 364.38 114.89 364.76 115.46C365.14 116.03 365.53 116.6 365.93 117.16C366.72 118.27 367.55 119.35 368.42 120.38C369.29 121.41 370.16 122.44 371.09 123.38C372.02 124.32 373 125.24 373.99 126.1C374.49 126.54 374.99 126.95 375.52 127.35L376.31 127.93L376.71 128.22L376.9 128.36L376.98 128.36L376.84 128.28C376.69 128.21 376.54 128.16 376.39 128.11C376.23 128.07 376.07 128.04 375.91 128.02C375.75 128 375.59 128 375.43 128.01C375.27 128.01 375.11 128.04 374.95 128.07C374.86 128.08 374.77 128.11 374.68 128.14C374.59 128.16 374.5 128.2 374.41 128.24C374.33 128.28 374.25 128.33 374.17 128.38C374.09 128.44 374.02 128.5 373.95 128.56C374 128.52 374.05 128.47 374.09 128.43C374.14 128.38 374.18 128.33 374.22 128.28C374.26 128.23 374.3 128.18 374.33 128.12C374.37 128.07 374.4 128.01 374.43 127.95C374.58 127.69 374.73 127.42 374.88 127.15C375.02 126.88 375.15 126.61 375.29 126.33C375.42 126.05 375.54 125.78 375.66 125.49C375.77 125.21 375.89 124.93 375.99 124.64C376.99 122.12 377.78 119.37 378.53 116.64C380.03 111.08 381.36 105.34 382.63 99.64L382.63 99.64C382.76 99.06 383.11 98.54 383.6 98.2C384.09 97.85 384.69 97.71 385.28 97.79C385.88 97.86 386.42 98.16 386.81 98.62C387.19 99.08 387.39 99.66 387.37 100.26C387.32 101.77 387.24 103.27 387.14 104.78C387.04 106.28 386.91 107.79 386.77 109.29C386.62 110.79 386.45 112.29 386.26 113.78C386.07 115.28 385.86 116.77 385.62 118.26C385.5 119.03 385.37 119.79 385.22 120.55C385.08 121.31 384.92 122.07 384.76 122.83C384.59 123.59 384.41 124.34 384.22 125.09C384.03 125.85 383.83 126.59 383.62 127.34C383.5 127.76 383.38 128.17 383.24 128.58C383.11 128.99 382.96 129.4 382.81 129.8C382.65 130.21 382.49 130.61 382.31 131.01C382.14 131.4 381.95 131.79 381.76 132.18C381.63 132.45 381.48 132.72 381.32 132.98C381.17 133.24 381 133.5 380.82 133.74C380.64 133.99 380.45 134.22 380.24 134.45C380.04 134.68 379.83 134.9 379.61 135.11C379.41 135.3 379.19 135.47 378.97 135.63C378.74 135.79 378.51 135.94 378.26 136.07C378.02 136.2 377.77 136.31 377.51 136.41C377.25 136.51 376.99 136.59 376.72 136.65C376.54 136.69 376.36 136.72 376.18 136.75C376 136.77 375.82 136.78 375.63 136.79C375.45 136.8 375.27 136.79 375.08 136.78C374.9 136.77 374.72 136.75 374.54 136.72C374.45 136.71 374.37 136.69 374.29 136.67C374.2 136.65 374.12 136.63 374.03 136.61C373.95 136.59 373.87 136.57 373.79 136.54C373.7 136.52 373.62 136.49 373.54 136.46C373.47 136.44 373.4 136.41 373.32 136.38C373.25 136.36 373.18 136.33 373.11 136.3C373.04 136.27 372.97 136.24 372.9 136.2C372.84 136.17 372.77 136.14 372.7 136.1L372.32 135.89L372.15 135.79L371.89 135.63L371.37 135.3C371.02 135.08 370.67 134.86 370.37 134.62C369.69 134.17 369.02 133.69 368.37 133.2C368.05 132.95 367.72 132.7 367.41 132.45C367.09 132.19 366.78 131.94 366.47 131.67C366.16 131.41 365.85 131.14 365.55 130.87C365.24 130.6 364.94 130.32 364.65 130.04C364.06 129.49 363.49 128.93 362.93 128.36C362.37 127.79 361.82 127.21 361.28 126.61C360.75 126.01 360.23 125.4 359.72 124.78C359.22 124.16 358.73 123.52 358.25 122.88C357.77 122.25 357.3 121.61 356.85 120.97C356.39 120.32 355.95 119.67 355.51 119.01C355.08 118.35 354.66 117.68 354.25 117.01C353.84 116.33 353.44 115.65 353.05 114.96C352.29 113.58 351.57 112.18 350.89 110.76C350.55 110.04 350.22 109.33 349.89 108.59C349.56 107.85 349.3 107.16 348.96 106.25C348.61 105.08 348.71 103.82 349.25 102.73C349.79 101.63 350.72 100.78 351.86 100.34C353 99.91 354.26 99.92 355.39 100.38C356.53 100.83 357.44 101.7 357.96 102.81L358.07 102.87Z" />
		<path id="Layer" class="shp6" d="M351 97.24C351.93 97.56 352.83 97.94 353.69 98.4C354.56 98.86 355.39 99.38 356.17 99.97C356.96 100.55 357.69 101.2 358.38 101.9C359.06 102.6 359.69 103.36 360.25 104.16C360.81 104.96 354.25 113.83 353.19 120.16C348.13 114.34 343.1 102.05 351 97.24Z" />
		<path id="Layer" class="shp20" d="M386.64 97.58C387.43 96.28 386.8 89.64 383.84 88.8C382.47 88.41 383.68 91.42 383.66 92.53C383.66 95.53 381.42 100.66 382.91 101.09C384.4 101.52 385.28 99.85 386.64 97.58Z" />
		<path id="Layer" class="shp20" d="M397 93.59C396.77 93.07 396.45 92.6 396.04 92.2C395.62 91.81 395.14 91.5 394.61 91.3C394.08 91.1 393.51 91 392.94 91.02C392.38 91.03 391.82 91.16 391.3 91.4L388 92.88C388 92.88 381.67 95.42 382.43 101.48L383.5 102.18C383.93 102.46 384.38 102.69 384.86 102.87C385.34 103.04 385.84 103.17 386.34 103.23C386.85 103.3 387.36 103.31 387.87 103.27C388.37 103.22 388.87 103.12 389.36 102.96L394.51 101.28C394.74 101.21 394.97 101.12 395.19 101.02C395.41 100.92 395.63 100.81 395.84 100.69C396.05 100.57 396.25 100.44 396.45 100.29C396.64 100.15 396.83 99.99 397.01 99.83L397.01 99.83C397.29 99.58 397.52 99.28 397.71 98.96C397.9 98.63 398.03 98.28 398.11 97.91C398.19 97.54 398.21 97.17 398.17 96.79C398.14 96.42 398.04 96.05 397.89 95.71L397 93.59Z" />
		<path id="Layer" fill-rule="evenodd" class="shp10" d="M396.31 91.89C397.04 93.57 396.75 95.32 395.66 95.8C394.57 96.28 393.09 95.3 392.36 93.62L388.09 83.87L384.99 82.65C384.99 82.65 381.74 75.49 382.23 68.12L392.13 90.72C392.16 90.61 392.21 90.51 392.27 90.41C392.32 90.31 392.39 90.22 392.46 90.13C392.54 90.04 392.62 89.97 392.71 89.9C392.8 89.83 392.9 89.77 393 89.72C394.14 89.24 395.58 90.21 396.31 91.89ZM395.34 95C396.13 94.62 396.29 93.37 395.76 92.15C395.23 90.93 394.16 90.24 393.38 90.58C392.6 90.92 392.4 92.18 392.92 93.39C393.44 94.6 394.52 95.31 395.3 94.96L395.34 95Z" />
		<path id="Layer" class="shp20" d="M394.25 91.2C392.41 90.83 390.25 91.01 389.55 92.2C388.85 93.39 390.18 93.85 390.95 93.58C391.72 93.31 394.52 94.77 394.95 94.1C395.38 93.43 394.25 91.2 394.25 91.2Z" />
		<path id="Layer" fill-rule="evenodd" class="shp10" d="M386.09 89.07C386.2 89.12 386.3 89.17 386.39 89.24C386.49 89.31 386.58 89.39 386.66 89.47C386.74 89.56 386.81 89.65 386.87 89.75C386.92 89.85 386.97 89.96 387.01 90.07L396.01 67.07C396.79 74.42 393.84 81.7 393.84 81.7L390.76 83L386.89 93C386.23 94.71 384.79 95.75 383.68 95.31C382.57 94.87 382.21 93.14 382.88 91.43C383.55 89.72 385 88.63 386.09 89.07ZM384 94.4C384.79 94.71 385.83 93.96 386.31 92.73C386.79 91.5 386.54 90.25 385.74 89.94C384.94 89.63 383.9 90.37 383.42 91.6C382.94 92.83 383.2 94.09 384 94.4Z" />
		<path id="Layer" class="shp20" d="M383.84 88.8C382.72 88.48 383.33 90.46 383.58 91.8C383.59 91.86 383.6 91.92 383.61 91.98C383.62 92.04 383.63 92.11 383.64 92.17C383.65 92.23 383.65 92.29 383.65 92.35C383.66 92.42 383.66 92.48 383.66 92.54L385.86 90.75C385.77 90.53 385.65 90.32 385.52 90.12C385.38 89.92 385.22 89.73 385.05 89.57C384.88 89.4 384.69 89.25 384.48 89.12C384.28 88.99 384.07 88.88 383.84 88.8Z" />
	</g>
</svg>